<svg width="180" height="67" viewBox="0 0 180 67" fill="none" xmlns="http://www.w3.org/2000/svg">
<g clip-path="url(#clip0_675_1958)">
<path d="M0.00855242 33.6752V33.7169C0.0199557 33.8805 0.0285081 34.0441 0.0456129 34.2109L0.0712702 34.4611C0.0826734 34.567 0.0969275 34.6729 0.114032 34.7787C0.125436 34.8525 0.136839 34.9231 0.151093 35.0065L0.24802 35.5198C0.290782 35.7219 0.333544 35.9015 0.370605 36.0394L0.38771 36.0908C0.456129 36.3442 0.535952 36.6008 0.630028 36.8767C0.641432 36.912 0.655686 36.9473 0.66994 36.9858L0.701299 37.0692C0.789674 37.3066 0.872347 37.5151 0.960722 37.7236L0.972125 37.7493C0.983529 37.7782 1.00063 37.8102 1.01774 37.8487C1.03484 37.8808 1.0491 37.9161 1.06335 37.945L1.12037 38.0733C1.15743 38.1535 1.19164 38.2305 1.23155 38.3107C1.34558 38.5384 1.45676 38.7405 1.5708 38.9362L1.63351 39.0453C1.69908 39.1576 1.7732 39.2763 1.87013 39.4206C1.88438 39.4431 1.90149 39.4655 1.92144 39.4944L1.97846 39.5746C2.01552 39.6324 2.05543 39.6869 2.09534 39.7446C2.23788 39.9467 2.36617 40.12 2.49161 40.2772C2.94203 40.8482 3.44948 41.3614 3.99968 41.8106C4.38454 42.1281 4.79506 42.4137 5.23693 42.6671L5.61324 42.866C5.69021 42.9045 5.76433 42.943 5.8356 42.975C5.90687 43.0103 5.98099 43.0392 6.05512 43.0745L6.08362 43.0873C6.21191 43.1451 6.34305 43.1964 6.47703 43.2477L6.5255 43.267C6.59392 43.2926 6.65949 43.3183 6.73076 43.3408C6.91891 43.4049 7.10706 43.4594 7.29522 43.5076C7.35223 43.5204 7.40925 43.5332 7.46627 43.5461L7.49762 43.5525C7.68293 43.5942 7.85968 43.6295 8.03643 43.6551C8.09344 43.6648 8.15331 43.6712 8.23883 43.6808L8.27589 43.6872C8.43554 43.7065 8.60374 43.7225 8.77479 43.7321H8.85461C8.89737 43.7385 8.94013 43.7417 8.98575 43.745C9.26227 43.7514 9.49319 43.7514 9.70985 43.7385C10.6763 43.6776 11.6484 43.4338 12.6034 43.0168C14.1029 42.3623 15.5426 41.278 16.8853 39.7928C17.9145 38.6507 18.9009 37.2649 19.8131 35.6641L19.9043 35.5037C19.95 35.4267 19.9927 35.3497 20.0355 35.2727C20.0953 35.1637 20.1524 35.0578 20.2094 34.9487L20.2977 34.7819C20.8879 33.672 21.4267 32.5011 21.9028 31.3077L22.1023 30.8041L22.5299 31.0703C22.7837 31.2275 23.0488 31.4007 23.3339 31.5964C23.445 31.6702 23.5505 31.7472 23.6532 31.8242L23.867 31.9782C23.9639 32.0488 24.0608 32.1161 24.1549 32.1867C24.2974 32.2926 24.4343 32.4016 24.5711 32.5107L24.7108 32.623C24.7821 32.6775 24.8533 32.7353 24.9218 32.7898C25.0843 32.9245 25.241 33.0593 25.3978 33.1908L25.643 33.4025C25.8055 33.5469 25.9652 33.6944 26.1248 33.842L26.313 34.0216C26.4783 34.1788 26.6436 34.3392 26.8033 34.4996L26.923 34.6183C27.1112 34.8076 27.2822 34.984 27.4504 35.1605L27.4989 35.2118C28.2458 36.001 28.9328 36.7901 29.6113 37.5729C29.8651 37.8648 30.1159 38.1535 30.364 38.4358L30.8742 39.01L31.6696 39.8601C31.8093 40.0045 31.9547 40.1456 32.1001 40.2868L32.197 40.383C32.2597 40.444 32.3196 40.5017 32.3909 40.5691L32.445 40.6204C33.3659 41.4769 34.2724 42.1217 35.2274 42.5933C35.5211 42.7473 35.8204 42.882 36.1197 42.9943C36.7213 43.2285 37.3969 43.4145 38.1324 43.5429C38.3206 43.5749 38.5059 43.6038 38.6883 43.6295C36.3763 41.3903 35.1904 38.7855 34.5945 36.9088C33.5141 33.5084 32.847 29.0621 32.254 25.142C31.7295 21.6518 31.2334 18.354 30.5407 16.3458C29.6741 13.8211 28.0291 12.5861 26.2445 13.1218C25.5404 13.3367 24.7935 13.8981 24.0124 14.8188C23.924 14.9215 23.8328 15.0273 23.7415 15.1428L23.713 15.1845C22.9376 16.1918 22.2506 17.491 21.6775 19.0405C21.6661 19.0758 21.6547 19.1046 21.6433 19.1303L21.6262 19.172C21.6262 19.172 21.6148 19.2041 21.6006 19.2394C21.5892 19.2683 21.5806 19.2971 21.5692 19.3196C21.23 20.1825 20.8964 21.1738 20.5458 22.226C20.1666 23.3584 19.7761 24.5293 19.2971 25.7836L19.1061 26.2873L18.6756 26.0306C17.8917 25.5687 17.0906 25.1516 16.2952 24.7956L16.2182 24.7603C15.9531 24.6416 15.688 24.5293 15.4286 24.4299L15.3202 24.3882C15.0238 24.2727 14.7472 24.1732 14.4593 24.077C13.8777 23.8845 13.2933 23.7241 12.7203 23.6054L12.5521 23.5733C12.324 23.5284 12.0988 23.4899 11.885 23.4578C11.8166 23.4482 11.7453 23.4386 11.6769 23.429L11.6142 23.4193C11.4346 23.3969 11.2607 23.3809 11.0811 23.3648L10.8074 23.3424C10.6791 23.3359 10.5537 23.3295 10.4254 23.3295C10.357 23.3295 10.2886 23.3295 10.2173 23.3295H9.98068L9.41622 23.352C9.33069 23.352 9.24517 23.3616 9.1682 23.368L8.84035 23.4065C8.69781 23.4226 8.55527 23.4418 8.42129 23.4643L8.35572 23.4771C8.29585 23.4867 8.23883 23.4995 8.15331 23.5156L8.07919 23.5316C7.90814 23.5669 7.73994 23.6022 7.57174 23.6471C7.46912 23.6728 7.36649 23.6984 7.26671 23.7305C7.23535 23.7401 7.20684 23.7466 7.17833 23.753C7.15268 23.7594 7.12702 23.7658 7.10136 23.7754C7.06145 23.7883 7.02154 23.8011 6.97022 23.8203L6.78492 23.8845C6.66804 23.923 6.55116 23.9647 6.43427 24.0096C6.35445 24.0417 6.27178 24.0738 6.1834 24.1123L6.06367 24.1636C5.98955 24.1957 5.91543 24.2245 5.8413 24.2598L5.6389 24.3561C5.59328 24.3785 5.54767 24.4042 5.49921 24.4299L5.42224 24.4716C5.31676 24.5261 5.21413 24.5838 5.10865 24.6416L5.00032 24.6993C4.9547 24.725 4.90624 24.7507 4.85778 24.7795L4.73234 24.8597C4.63541 24.9207 4.53849 24.9848 4.44441 25.049L4.25626 25.1741C4.20209 25.2094 4.14507 25.2447 4.09376 25.2832C3.91701 25.4115 3.73456 25.5494 3.55211 25.697C3.5293 25.7162 3.50649 25.7355 3.47228 25.7676L3.23567 25.9729C3.1758 26.0242 3.11593 26.0755 3.05892 26.1269C3.02471 26.1557 2.99335 26.1878 2.95914 26.2231L2.90212 26.2776C2.79949 26.3771 2.69686 26.4765 2.59994 26.576L2.45455 26.7364C2.36047 26.839 2.26924 26.9417 2.18942 27.0379L2.01837 27.2496C1.94425 27.3427 1.87583 27.4357 1.80171 27.5352L1.64492 27.7565C1.61071 27.8046 1.5765 27.8527 1.54799 27.8977L1.36269 28.196C1.29427 28.3083 1.2287 28.4238 1.15743 28.5489L1.06905 28.7125C1.00919 28.828 0.949319 28.9467 0.889452 29.075L0.815331 29.2322C0.792524 29.2803 0.769718 29.3316 0.752613 29.3701L0.615774 29.7166C0.581565 29.8064 0.550206 29.8962 0.521698 29.9796L0.430472 30.2555C0.376307 30.4255 0.327843 30.602 0.279379 30.8009L0.242319 30.9613C0.196706 31.1698 0.153944 31.3879 0.116883 31.6349L0.0912258 31.8049C0.0570162 32.0487 0.0342097 32.2733 0.0199557 32.4882V32.5235C0.014254 32.5749 0.0114032 32.6262 0.0114032 32.6839L0.00285081 32.8732C0.00285081 32.9053 0 32.9406 0 32.9598V33.5276L0.00570162 33.6174V33.672L0.00855242 33.6752ZM22.7694 28.9146L22.8777 28.5617C22.9462 28.3371 23.0117 28.119 23.0716 27.9041C23.1143 27.7597 23.1543 27.6121 23.1913 27.471C23.351 26.8807 23.522 26.2969 23.7016 25.7291C23.9639 24.9014 24.2404 24.1283 24.5198 23.4322C24.6082 23.2108 24.6965 23.0055 24.7821 22.8066L24.8049 22.7521C24.8876 22.566 24.9674 22.3896 25.0472 22.2228L25.0928 22.1265C25.1698 21.9694 25.2439 21.825 25.318 21.6838L25.3579 21.6069C25.3779 21.5652 25.4007 21.5267 25.4207 21.4882C25.7998 20.7952 26.1647 20.2884 26.504 19.9804C26.9943 19.5345 27.3792 19.557 27.6158 19.6564C28.0462 19.8329 28.3342 20.3654 28.4995 21.2957L28.5309 21.4914C28.5366 21.5267 28.5423 21.5587 28.5451 21.5812C28.8787 23.8203 29.101 26.4637 29.312 29.0236L29.3918 29.9925C29.4175 30.278 29.4403 30.5506 29.4659 30.8265L29.4802 30.9805C29.6313 32.6326 29.7795 33.8324 29.9563 34.8718L30.2528 36.5944L29.1866 35.3177C29.0241 35.122 28.8587 34.9295 28.6934 34.737L28.6193 34.6536C28.5309 34.551 28.4454 34.4483 28.3513 34.3424C28.3 34.2847 28.2487 34.2237 28.1945 34.166L27.7184 33.6399C27.439 33.3319 27.1368 33.0111 26.8204 32.6839L26.5866 32.4401C26.2132 32.0552 25.8711 31.7151 25.5404 31.3943L25.3807 31.2436C25.0814 30.958 24.765 30.6629 24.4371 30.3678C24.3345 30.2748 24.2319 30.1817 24.1264 30.0887C23.713 29.7198 23.3652 29.4214 23.0317 29.1456L22.7637 28.9242L22.7694 28.9146ZM2.06969 33.7618C2.08679 33.5693 2.1153 33.3704 2.14951 33.1715L2.15806 33.1202C2.18372 32.9726 2.21793 32.8251 2.25499 32.6775C2.27494 32.5941 2.29775 32.5139 2.32056 32.4305C2.35477 32.3086 2.39183 32.1899 2.43174 32.0712C2.4631 31.9846 2.49446 31.898 2.52582 31.8146C2.56858 31.7055 2.61134 31.5964 2.6598 31.4874C2.70542 31.3847 2.74818 31.2981 2.79094 31.2115C2.828 31.1345 2.87076 31.0575 2.91067 30.9837L2.96769 30.8811C3.01615 30.7944 3.07032 30.711 3.12449 30.6244C3.15584 30.5763 3.1872 30.5282 3.21856 30.4833C3.26417 30.4159 3.29838 30.3614 3.33544 30.31C3.39531 30.2266 3.45803 30.1464 3.5236 30.063L3.58347 29.9892C3.64903 29.909 3.7032 29.8417 3.76022 29.7775C3.83434 29.6941 3.91416 29.6139 3.99398 29.5305C4.08521 29.4375 4.16788 29.3605 4.25055 29.2835C4.33608 29.2065 4.42445 29.1327 4.51283 29.0621C4.60691 28.9852 4.70383 28.9082 4.80361 28.8376C4.84067 28.8119 4.87773 28.7863 4.90909 28.767L4.96896 28.7285C5.04308 28.6772 5.1229 28.6291 5.19702 28.5809L5.25974 28.5425C5.31391 28.5072 5.36807 28.4751 5.42509 28.443C5.4878 28.4077 5.55052 28.3756 5.61324 28.3436L5.67881 28.3083C5.82135 28.2345 5.96389 28.1639 6.11498 28.0998C6.19481 28.0645 6.27748 28.0324 6.37441 27.9971L6.47133 27.9618C6.62243 27.9041 6.77637 27.8495 6.93316 27.8046C7.01299 27.779 7.09281 27.7597 7.17263 27.7373L7.36364 27.6891C7.51758 27.6506 7.67437 27.6154 7.83687 27.5833C7.89674 27.5704 7.95946 27.5608 8.01647 27.5512L8.05923 27.5448C8.13621 27.5319 8.21318 27.5191 8.293 27.5095C8.4669 27.4838 8.6465 27.4646 8.83465 27.4453L9.00855 27.4325C9.10548 27.4261 9.19671 27.4165 9.29078 27.4133C9.47608 27.4036 9.67849 27.4004 9.92366 27.4004H10.0605C10.1603 27.4004 10.2601 27.4004 10.3627 27.4068C10.6221 27.4165 10.8958 27.4389 11.1267 27.4582L11.2664 27.471C11.3491 27.4774 11.4289 27.4838 11.5144 27.4935C11.9449 27.5416 12.3497 27.6025 12.7488 27.6763C13.0966 27.7405 13.4615 27.8175 13.8977 27.9137C14.0203 27.9394 14.1372 27.9682 14.2768 28.0003L14.3652 28.0228C14.6047 28.0773 14.8442 28.135 15.0779 28.196L15.4457 28.2922C15.7621 28.3788 16.0757 28.4655 16.3722 28.5553L16.4549 28.5777C16.7913 28.6804 17.1219 28.7863 17.4384 28.8953L17.9686 29.075L17.7035 29.6235C16.7428 31.6028 15.668 33.3736 14.4222 35.0354L14.2654 35.276H14.2398C13.7523 35.9143 13.2135 36.5527 12.6376 37.1847C12.5607 37.2681 12.4865 37.3483 12.4324 37.4028C12.344 37.5055 12.2642 37.5921 12.1787 37.6787C11.9221 37.9386 11.6484 38.192 11.3177 38.4775C11.1153 38.6507 10.9015 38.8207 10.662 38.994L10.5679 39.0646C10.3484 39.2217 10.1375 39.3629 9.94647 39.4784L9.90656 39.504C9.6956 39.6324 9.47893 39.7511 9.26798 39.8537L9.23377 39.8697C9.01425 39.9756 8.80044 40.0654 8.59518 40.1424C8.35572 40.229 8.1077 40.3028 7.85683 40.3574L7.82262 40.3638C7.59455 40.4119 7.36079 40.444 7.11847 40.46H7.0529C6.98448 40.4664 6.91606 40.4664 6.84764 40.4664C6.7108 40.4664 6.57396 40.46 6.43712 40.4472L6.3687 40.4408C6.14919 40.4151 5.93823 40.3766 5.74438 40.3221C5.40798 40.2322 5.07729 40.0943 4.7694 39.9179L4.70953 39.8858C4.56414 39.7992 4.43016 39.7029 4.35033 39.6452L4.30472 39.6131C4.28191 39.5971 4.26196 39.5842 4.242 39.5682C4.14793 39.4944 4.0624 39.4174 3.96547 39.3276L3.91986 39.2891C3.8828 39.257 3.84574 39.2217 3.81723 39.1929C3.76307 39.1415 3.7146 39.0838 3.66614 39.0293L3.55496 38.9042C3.51505 38.8592 3.47799 38.8175 3.43807 38.7694C3.40386 38.7245 3.38106 38.6956 3.35825 38.6636L3.32689 38.6186C3.25277 38.5224 3.1815 38.423 3.10738 38.3107L3.06747 38.2465C2.97054 38.0925 2.88787 37.9482 2.8109 37.8038C2.637 37.467 2.49161 37.1109 2.37472 36.7388C2.19512 36.171 2.08679 35.5807 2.04688 34.9808C2.02122 34.5734 2.02407 34.1628 2.06113 33.7618H2.06969Z" fill="white"/>
<path d="M46.1375 46.7573H0V51.8195H46.1375V46.7573Z" fill="white"/>
<path d="M39.0789 13.0482C39.3611 13.0482 43.643 13.0867 43.643 15.6177V36.0492C43.643 38.1825 43.6772 41.9358 46.1375 41.9358C45.1881 43.3569 44.102 43.5173 43.2239 43.5173C40.3788 43.5173 39.0789 40.6334 39.0789 37.3131V13.0482Z" fill="white"/>
<path d="M52.5973 53C52.2809 53 48.0332 53.0385 48.0332 50.0359V22.4122C48.9455 22.9254 49.8948 23.1628 50.8412 23.1628C52.7028 23.1628 54.4931 22.4122 55.967 22.4122C60.9901 22.4122 63.8694 24.9015 63.8694 29.2868V36.8736C63.8694 41.1402 60.6024 43.7098 56.845 43.7098C53.9315 43.7098 52.3151 42.17 52.3151 42.17C52.3151 42.17 52.5973 43.4756 52.5973 44.4604V52.9968V53ZM52.5973 36.6812C52.5973 38.6188 54.4931 39.9597 56.3889 39.9597C58.0737 39.9597 59.3024 38.8529 59.3024 36.2834V29.8803C59.3024 27.3909 58.4586 26.1655 55.5451 26.1655C53.9657 26.1655 52.5945 26.6403 52.5945 26.6403V36.6779H52.5973V36.6812Z" fill="white"/>
<path d="M72.2994 43.5141C72.2994 43.5141 67.7352 43.5141 67.7352 40.9445V13.1251C67.9804 13.1251 72.2994 13.0064 72.2994 16.0893V21.5845C72.2994 22.5725 72.0171 23.9552 72.0171 23.9552C72.0171 23.9552 73.702 22.4154 76.5471 22.4154C80.3044 22.4154 83.5715 24.6288 83.5715 29.2515V43.5173C83.5715 43.5173 79.0073 43.4371 79.0073 40.9477V29.8418C79.0073 27.2722 77.7786 26.1655 76.0938 26.1655C74.198 26.1655 72.3022 27.5096 72.3022 29.444V43.5109H72.2994V43.5141Z" fill="white"/>
<path d="M98.0022 28.9339C98.0022 27.5128 97.3009 26.2457 94.5954 26.2457C91.6449 26.2457 88.9765 27.3909 88.9765 30.7112C87.9588 29.1713 87.6423 27.9459 87.6423 26.8776C87.6423 23.4387 91.7503 22.4122 94.6296 22.4122C99.7925 22.4122 102.532 24.863 102.532 29.1681V43.6296C101.62 43.1163 100.705 42.9976 99.8295 42.9976C98.0734 42.9976 96.3173 43.7098 94.3161 43.7098C90.6984 43.7098 87.152 42.2085 87.152 37.5056C87.152 30.1145 96.5625 32.0521 98.0022 28.9307V28.9339ZM98.1076 32.9663C97.3009 35.0611 91.6819 33.9159 91.6819 37.4318C91.6819 39.209 92.8422 40.1201 94.8435 40.1201C96.705 40.1201 98.1105 39.4079 98.1105 39.4079V32.9663H98.1076Z" fill="white"/>
<path d="M111.102 43.5141C111.102 43.5141 106.537 43.5141 106.537 40.9445V13.1251C106.783 13.1251 111.102 13.0064 111.102 16.0893V21.5845C111.102 22.5725 110.819 23.9552 110.819 23.9552C110.819 23.9552 112.504 22.4154 115.349 22.4154C119.107 22.4154 122.374 24.6288 122.374 29.2515V43.5173C122.374 43.5173 117.81 43.4371 117.81 40.9477V29.8418C117.81 27.2722 116.581 26.1655 114.896 26.1655C113 26.1655 111.104 27.5096 111.104 29.444V43.5109H111.102V43.5141Z" fill="white"/>
<path d="M131.154 36.601C131.154 38.6958 132.032 39.8795 134.527 39.8795C136.317 39.8795 137.862 39.3277 137.862 39.3277V22.6111C137.862 22.6111 142.426 22.6111 142.426 25.1807V43.713C142.426 43.713 141.058 42.8822 139.265 42.8822C137.472 42.8822 135.929 43.713 134.034 43.713C130.416 43.713 126.587 42.3304 126.587 37.1912V22.6111C126.587 22.6111 131.151 22.6913 131.151 25.1807V36.601H131.154Z" fill="white"/>
<path d="M146.289 36.7581V29.367C146.289 25.0202 149.029 22.4122 154.049 22.4122C159.069 22.4122 161.458 25.0202 161.458 28.9724C161.458 32.3312 159.702 35.4525 154.155 35.4525C153.031 35.4525 151.908 35.2151 150.853 34.7403V36.1615C150.853 38.5321 152.116 39.7576 154.75 39.7576C158.228 39.7576 160.58 38.0991 160.615 35.7252C161.353 36.9121 161.704 37.9772 161.704 38.9652C161.704 41.8107 158.79 43.7066 154.75 43.7066C149.414 43.7066 146.286 41.0985 146.286 36.7517V36.7581H146.289ZM150.856 31.1057C151.207 31.1859 152.436 31.4618 153.49 31.4618C156.019 31.4618 156.897 30.554 156.897 28.9724C156.897 27.3909 156.09 26.1655 153.912 26.1655C151.523 26.1655 150.856 27.5481 150.856 29.9605V31.1057Z" fill="white"/>
<path d="M164.161 28.9724C164.161 24.5872 166.935 22.4122 171.921 22.4122C176.171 22.4122 179.051 23.7563 179.051 26.4029C179.051 27.4294 178.663 28.6164 177.716 29.9605C177.716 27.5096 175.222 26.3259 172.274 26.3259C169.817 26.3259 168.657 27.038 168.657 28.7351C168.657 32.5686 180 27.9459 180 37.3484C180 41.2621 177.332 43.7098 171.924 43.7098C167.499 43.7098 164.443 42.2085 164.443 39.4817C164.443 38.375 164.899 37.188 166.094 35.7669C166.165 39.1256 169.289 39.8763 171.924 39.8763C173.397 39.8763 175.541 39.2828 175.541 37.1495C175.541 32.7225 164.164 37.5441 164.164 28.9692L164.161 28.9724Z" fill="white"/>
<path d="M57.458 51.8452H56.6883V49.8562L55.0234 46.8055H55.8502L57.0732 49.0992L58.2962 46.8055H59.1229L57.458 49.8562V51.8452Z" fill="white"/>
<path d="M65.2179 51.149C64.7646 51.6463 64.2059 51.8965 63.5388 51.8965C62.8717 51.8965 62.3129 51.6463 61.8596 51.149C61.4064 50.6518 61.1812 50.0327 61.1812 49.2884C61.1812 48.5442 61.4064 47.925 61.8596 47.4278C62.3129 46.9306 62.8717 46.6804 63.5388 46.6804C64.2059 46.6804 64.7646 46.9306 65.2179 47.4278C65.6712 47.925 65.8964 48.5442 65.8964 49.2884C65.8964 50.0327 65.6712 50.6518 65.2179 51.149ZM64.6648 47.9956C64.3598 47.6395 63.9835 47.4631 63.5416 47.4631C63.0997 47.4631 62.7234 47.6395 62.4184 47.9956C62.1134 48.3517 61.9594 48.7816 61.9594 49.2916C61.9594 49.8017 62.1134 50.2316 62.4184 50.5844C62.7234 50.9405 63.0997 51.117 63.5416 51.117C63.9835 51.117 64.3598 50.9405 64.6648 50.5844C64.9699 50.2284 65.1238 49.7985 65.1238 49.2916C65.1238 48.7848 64.9699 48.3517 64.6648 47.9956Z" fill="white"/>
<path d="M69.7793 50.6903C69.9845 50.9598 70.261 51.0945 70.6117 51.0945C70.9623 51.0945 71.2389 50.9598 71.4441 50.6903C71.6494 50.4208 71.752 50.0551 71.752 49.5932V46.8022H72.5075V49.6285C72.5075 50.3535 72.3307 50.9116 71.9744 51.3062C71.6209 51.6976 71.1647 51.8933 70.6088 51.8933C70.0529 51.8933 69.5997 51.6976 69.2433 51.3062C68.8898 50.9148 68.7102 50.3567 68.7102 49.6285V46.8022H69.4657V49.5932C69.4657 50.0551 69.5683 50.4208 69.7736 50.6903H69.7793Z" fill="white"/>
<path d="M79.1925 48.4415C79.1925 49.2724 78.8704 49.7985 78.2261 50.0134L79.3978 51.8452H78.4371L77.368 50.1514H76.3759V51.8452H75.6205V46.8055H77.2854C77.9695 46.8055 78.457 46.9338 78.7535 47.1936C79.0472 47.4535 79.1954 47.8673 79.1954 48.4415H79.1925ZM78.1862 49.1569C78.3402 49.0093 78.4171 48.7688 78.4171 48.4383C78.4171 48.1079 78.3373 47.8834 78.1805 47.7615C78.0237 47.6396 77.7415 47.5786 77.3338 47.5786H76.3731V49.3815H77.3139C77.7415 49.3815 78.0323 49.3077 78.1862 49.1569Z" fill="white"/>
<path d="M87.9274 51.0721C88.1868 51.0721 88.4121 51.0239 88.6002 50.9245C88.7884 50.825 88.9851 50.6678 89.1903 50.4529L89.6778 51.0143C89.2046 51.6046 88.6287 51.8997 87.9502 51.8997C87.2717 51.8997 86.7101 51.6559 86.2654 51.1651C85.8178 50.6743 85.5955 50.0551 85.5955 49.3045C85.5955 48.5538 85.8235 47.9283 86.2768 47.431C86.7301 46.9338 87.3059 46.6804 88.0015 46.6804C88.6971 46.6804 89.2759 46.9691 89.7405 47.5465L89.2587 48.1368C89.0449 47.9058 88.8425 47.7454 88.6544 47.6524C88.4634 47.5593 88.241 47.5144 87.9844 47.5144C87.5312 47.5144 87.152 47.678 86.8441 48.0085C86.5362 48.3389 86.3823 48.7591 86.3823 49.2692C86.3823 49.7792 86.5362 50.2091 86.8413 50.5524C87.1463 50.8956 87.5083 51.0688 87.9274 51.0688V51.0721Z" fill="white"/>
<path d="M96.095 48.4415C96.095 49.2724 95.7729 49.7985 95.1286 50.0134L96.3003 51.8452H95.3395L94.2705 50.1514H93.2784V51.8452H92.5229V46.8055H94.1878C94.872 46.8055 95.3595 46.9338 95.656 47.1936C95.9496 47.4535 96.0979 47.8673 96.0979 48.4415H96.095ZM95.0887 49.1569C95.2426 49.0093 95.3196 48.7688 95.3196 48.4383C95.3196 48.1079 95.2398 47.8834 95.083 47.7615C94.9262 47.6396 94.644 47.5786 94.2363 47.5786H93.2756V49.3815H94.2163C94.644 49.3815 94.9347 49.3077 95.0887 49.1569Z" fill="white"/>
<path d="M102.253 46.8055V47.6043H99.8638V48.9388H102.01V49.6958H99.8638V51.0432H102.33V51.8452H99.1055V46.8055H102.253Z" fill="white"/>
<path d="M105.856 50.6999L105.409 51.8452H104.602L106.575 46.8055H107.381L109.354 51.8452H108.547L108.1 50.6999H105.856ZM107.792 49.914L106.979 47.8384L106.167 49.914H107.792Z" fill="white"/>
<path d="M113.237 47.585V51.8452H112.481V47.585H111.125V46.8055H114.597V47.585H113.237Z" fill="white"/>
<path d="M117.336 46.8055H118.092V51.8452H117.336V46.8055Z" fill="white"/>
<path d="M123.303 51.8452H122.456L120.655 46.8055H121.501L122.878 50.5684L124.255 46.8055H125.102L123.3 51.8452H123.303Z" fill="white"/>
<path d="M130.812 46.8055V47.6043H128.423V48.9388H130.57V49.6958H128.423V51.0432H130.889V51.8452H127.665V46.8055H130.812Z" fill="white"/>
<path d="M140.482 47.2449C140.793 47.5369 140.95 47.9892 140.95 48.6019C140.95 49.2146 140.79 49.6605 140.474 49.9428C140.154 50.2251 139.667 50.3695 139.008 50.3695H138.213V51.8484H137.457V46.8087H138.994C139.672 46.8087 140.169 46.9562 140.479 47.2481H140.482V47.2449ZM139.946 49.3205C140.097 49.1408 140.174 48.8746 140.174 48.5281C140.174 48.1817 140.077 47.9346 139.886 47.7903C139.695 47.6459 139.393 47.5754 138.983 47.5754H138.213V49.5932H139.091C139.51 49.5932 139.795 49.5033 139.946 49.3237V49.3205Z" fill="white"/>
<path d="M144.154 50.6999L143.706 51.8452H142.9L144.872 46.8055H145.679L147.652 51.8452H146.845L146.397 50.6999H144.154ZM146.09 49.914L145.277 47.8384L144.465 49.914H146.09Z" fill="white"/>
<path d="M153.773 48.4415C153.773 49.2724 153.45 49.7985 152.806 50.0134L153.978 51.8452H153.017L151.948 50.1514H150.956V51.8452H150.2V46.8055H151.865C152.55 46.8055 153.037 46.9338 153.333 47.1936C153.627 47.4535 153.775 47.8673 153.775 48.4415H153.773ZM152.766 49.1569C152.92 49.0093 152.997 48.7688 152.997 48.4383C152.997 48.1079 152.917 47.8834 152.76 47.7615C152.604 47.6396 152.321 47.5786 151.914 47.5786H150.953V49.3815H151.894C152.321 49.3815 152.612 49.3077 152.766 49.1569Z" fill="white"/>
<path d="M158.411 47.585V51.8452H157.655V47.585H156.298V46.8055H159.771V47.585H158.411Z" fill="white"/>
<path d="M165.869 46.8055H166.624V51.8452H165.803L163.266 48.1689V51.8452H162.51V46.8055H163.266L165.869 50.5684V46.8055Z" fill="white"/>
<path d="M172.936 46.8055V47.6043H170.547V48.9388H172.693V49.6958H170.547V51.0432H173.013V51.8452H169.788V46.8055H172.936Z" fill="white"/>
<path d="M179.478 48.4415C179.478 49.2724 179.156 49.7985 178.512 50.0134L179.684 51.8452H178.723L177.654 50.1514H176.662V51.8452H175.906V46.8055H177.571C178.255 46.8055 178.743 46.9338 179.039 47.1936C179.333 47.4535 179.481 47.8673 179.481 48.4415H179.478ZM178.472 49.1569C178.626 49.0093 178.703 48.7688 178.703 48.4383C178.703 48.1079 178.623 47.8834 178.466 47.7615C178.309 47.6396 178.027 47.5786 177.62 47.5786H176.659V49.3815H177.6C178.027 49.3815 178.318 49.3077 178.472 49.1569Z" fill="white"/>
</g>
<defs>
<clipPath id="clip0_675_1958">
<rect width="180" height="40" fill="white" transform="translate(0 13)"/>
</clipPath>
</defs>
</svg>
