<svg width="100" height="100" viewBox="0 0 100 100" fill="none" xmlns="http://www.w3.org/2000/svg">
<rect width="100" height="100" rx="50" fill="#36B194"/>
<path d="M34.8409 65H24.5284V35.9091H34.9261C37.8523 35.9091 40.3712 36.4915 42.483 37.6562C44.5947 38.8116 46.2188 40.4735 47.3551 42.642C48.5009 44.8106 49.0739 47.4053 49.0739 50.4261C49.0739 53.4564 48.5009 56.0606 47.3551 58.2386C46.2188 60.4167 44.5852 62.0881 42.4545 63.2528C40.3333 64.4176 37.7955 65 34.8409 65ZM30.679 59.7301H34.5852C36.4034 59.7301 37.9328 59.4081 39.1733 58.7642C40.4233 58.1108 41.3608 57.1023 41.9858 55.7386C42.6203 54.3655 42.9375 52.5947 42.9375 50.4261C42.9375 48.2765 42.6203 46.5199 41.9858 45.1562C41.3608 43.7926 40.428 42.7888 39.1875 42.1449C37.947 41.5009 36.4176 41.179 34.5994 41.179H30.679V59.7301ZM69.4112 44.2756C69.2976 43.1297 68.8099 42.2396 67.9482 41.6051C67.0864 40.9706 65.9169 40.6534 64.4396 40.6534C63.4358 40.6534 62.5883 40.7955 61.897 41.0795C61.2057 41.3542 60.6754 41.7377 60.3061 42.2301C59.9463 42.7225 59.7663 43.2812 59.7663 43.9062C59.7474 44.4271 59.8563 44.8816 60.093 45.2699C60.3393 45.6581 60.6754 45.9943 61.1016 46.2784C61.5277 46.553 62.0201 46.7945 62.5788 47.0028C63.1375 47.2017 63.7341 47.3722 64.3686 47.5142L66.9822 48.1392C68.2512 48.4233 69.416 48.8021 70.4766 49.2756C71.5372 49.7491 72.4557 50.3314 73.2322 51.0227C74.0088 51.714 74.6101 52.5284 75.0362 53.4659C75.4718 54.4034 75.6944 55.4782 75.7038 56.6903C75.6944 58.4706 75.2398 60.0142 74.3402 61.321C73.45 62.6184 72.1622 63.6269 70.4766 64.3466C68.8004 65.0568 66.7786 65.4119 64.4112 65.4119C62.0627 65.4119 60.0173 65.0521 58.2749 64.3324C56.5419 63.6127 55.1877 62.5473 54.2124 61.1364C53.2464 59.7159 52.7398 57.9593 52.6925 55.8665H58.6442C58.7105 56.8419 58.9898 57.6562 59.4822 58.3097C59.9841 58.9536 60.6518 59.4413 61.4851 59.7727C62.3279 60.0947 63.2796 60.2557 64.3402 60.2557C65.3819 60.2557 66.2862 60.1042 67.0533 59.8011C67.8298 59.4981 68.4311 59.0767 68.8572 58.5369C69.2834 57.9972 69.4964 57.3769 69.4964 56.6761C69.4964 56.0227 69.3023 55.4735 68.9141 55.0284C68.5353 54.5833 67.9766 54.2045 67.2379 53.892C66.5088 53.5795 65.6139 53.2955 64.5533 53.0398L61.3857 52.2443C58.933 51.6477 56.9964 50.715 55.576 49.446C54.1555 48.1771 53.45 46.4678 53.4595 44.3182C53.45 42.5568 53.9188 41.018 54.8658 39.7017C55.8222 38.3854 57.1338 37.358 58.8004 36.6193C60.4671 35.8807 62.361 35.5114 64.4822 35.5114C66.6413 35.5114 68.5258 35.8807 70.1357 36.6193C71.755 37.358 73.0144 38.3854 73.9141 39.7017C74.8137 41.018 75.2777 42.5426 75.3061 44.2756H69.4112Z" fill="#FFFDFD"/>
</svg>
