<svg width="100" height="100" viewBox="0 0 100 100" fill="none" xmlns="http://www.w3.org/2000/svg">
<rect width="100" height="100" rx="50" fill="#1A45AB"/>
<path d="M47.8409 65H37.5284V35.9091H47.9261C50.8523 35.9091 53.3712 36.4915 55.483 37.6562C57.5947 38.8116 59.2188 40.4735 60.3551 42.642C61.5009 44.8106 62.0739 47.4053 62.0739 50.4261C62.0739 53.4564 61.5009 56.0606 60.3551 58.2386C59.2188 60.4167 57.5852 62.0881 55.4545 63.2528C53.3333 64.4176 50.7955 65 47.8409 65ZM43.679 59.7301H47.5852C49.4034 59.7301 50.9328 59.4081 52.1733 58.7642C53.4233 58.1108 54.3608 57.1023 54.9858 55.7386C55.6203 54.3655 55.9375 52.5947 55.9375 50.4261C55.9375 48.2765 55.6203 46.5199 54.9858 45.1562C54.3608 43.7926 53.428 42.7888 52.1875 42.1449C50.947 41.5009 49.4176 41.179 47.5994 41.179H43.679V59.7301Z" fill="#FFFDFD"/>
</svg>
