<svg width="64" height="67" viewBox="0 0 64 67" fill="none" xmlns="http://www.w3.org/2000/svg">
<path d="M0 20C0 8.9543 8.95431 0 20 0H44C55.0457 0 64 8.9543 64 20V47C64 58.0457 55.0457 67 44 67H20C8.95431 67 0 58.0457 0 47V20Z" fill="#024162"/>
<path d="M11.297 38.0362V38.0765C11.3076 38.2314 11.3204 38.3885 11.3374 38.5477L11.3649 38.7854C11.3777 38.8872 11.3925 38.987 11.4095 39.0867C11.4201 39.1568 11.4329 39.2247 11.4498 39.3053L11.5517 39.7934C11.5984 39.9866 11.643 40.1585 11.6833 40.2879L11.7003 40.3368C11.7724 40.5766 11.8573 40.8228 11.9592 41.0838C11.9719 41.1178 11.9868 41.1496 12.0038 41.1878L12.0377 41.2684C12.1311 41.4955 12.2202 41.695 12.3157 41.8903L12.3264 41.9157C12.3391 41.9433 12.3561 41.973 12.3752 42.0112C12.3921 42.0431 12.4091 42.0749 12.424 42.1046L12.4855 42.2256C12.5237 42.302 12.564 42.3763 12.6044 42.4506C12.7253 42.667 12.8442 42.8602 12.9652 43.0448L13.0331 43.1488C13.1031 43.2549 13.1838 43.3695 13.2856 43.5053C13.3005 43.5266 13.3196 43.5499 13.3408 43.5775L13.4002 43.656C13.4406 43.7091 13.4809 43.7643 13.5254 43.8194C13.6783 44.0126 13.8162 44.1781 13.9499 44.3267C14.4317 44.8679 14.975 45.3581 15.565 45.7868C15.9767 46.0882 16.4181 46.3598 16.8893 46.6018L17.2925 46.7928C17.3753 46.831 17.4538 46.8649 17.5302 46.8968C17.6066 46.9286 17.6852 46.9583 17.7658 46.9902L17.7976 47.0029C17.9356 47.0559 18.0757 47.1069 18.22 47.1536L18.2709 47.1705C18.3431 47.1939 18.4152 47.2194 18.4895 47.2406C18.689 47.3 18.8927 47.3552 19.0944 47.3998C19.1559 47.4125 19.2153 47.4252 19.2769 47.438L19.3087 47.4443C19.5082 47.4846 19.6971 47.5165 19.8839 47.5441C19.9454 47.5526 20.0091 47.5589 20.1003 47.5695L20.1407 47.5738C20.3104 47.5929 20.4908 47.6077 20.6755 47.6162L20.7604 47.6205C20.8071 47.6226 20.8537 47.6268 20.9004 47.6268C21.1954 47.6332 21.4437 47.6332 21.6772 47.6205C22.7108 47.5632 23.7528 47.3318 24.7757 46.935C26.3802 46.3131 27.9231 45.2817 29.362 43.8661C30.4656 42.7816 31.5204 41.4594 32.4967 39.9378L32.5943 39.7871C32.6431 39.7128 32.6898 39.6406 32.7365 39.5664C32.8002 39.4645 32.8617 39.3605 32.9211 39.2565L33.0166 39.0973C33.647 38.0404 34.2242 36.9283 34.7336 35.7929L34.9479 35.3133L35.4063 35.568C35.678 35.7186 35.9603 35.8821 36.268 36.0688C36.3847 36.141 36.4993 36.2131 36.6097 36.2853L36.8389 36.4317C36.9429 36.4975 37.0448 36.5633 37.1466 36.6312C37.2994 36.7331 37.4459 36.8371 37.5944 36.9411L37.7451 37.0472C37.8215 37.1003 37.8979 37.1533 37.9701 37.2064C38.1441 37.3337 38.3118 37.461 38.4794 37.5884L38.7405 37.79C38.9145 37.9279 39.0864 38.0659 39.2562 38.2081L39.4599 38.3779C39.6382 38.5286 39.8122 38.6792 39.9841 38.832L40.1115 38.9445C40.311 39.1228 40.4956 39.2905 40.676 39.4602L40.7291 39.5091C41.5292 40.2603 42.2635 41.0116 42.9914 41.7566C43.2631 42.0346 43.5326 42.3105 43.7979 42.5779L44.3455 43.1233L45.1986 43.934C45.3493 44.072 45.5021 44.2057 45.6592 44.3394L45.7632 44.4328C45.8289 44.4922 45.8926 44.5453 45.969 44.6089L46.0263 44.6577C47.0111 45.4727 47.9831 46.0861 49.006 46.536C49.3201 46.6824 49.6385 46.8098 49.9611 46.918C50.6041 47.1408 51.3299 47.317 52.1173 47.4401C52.3168 47.4719 52.5163 47.4995 52.7137 47.5229C50.237 45.3921 48.9699 42.9153 48.3311 41.1262C47.1745 37.8919 46.4593 33.6621 45.8268 29.9311C45.2644 26.6097 44.7338 23.473 43.991 21.5608C43.0636 19.1605 41.3 17.9847 39.392 18.4919C38.6365 18.6957 37.8385 19.2326 37.0002 20.1049C36.9068 20.2025 36.8092 20.3044 36.7115 20.4126L36.6797 20.4508C35.8478 21.4101 35.1156 22.6474 34.5022 24.1182C34.4895 24.1521 34.4768 24.1776 34.464 24.2052L34.4449 24.2455C34.4386 24.2582 34.4322 24.2752 34.4195 24.3113C34.4089 24.3389 34.3961 24.3665 34.3876 24.3877C34.0247 25.2069 33.6682 26.1513 33.2904 27.1509C32.885 28.2269 32.4648 29.3411 31.9534 30.536L31.7475 31.0156L31.2848 30.7737C30.4465 30.3344 29.587 29.9375 28.736 29.5979L28.6532 29.5661C28.3688 29.4536 28.0844 29.3475 27.8085 29.2499L27.6939 29.2095C27.3756 29.0992 27.0827 29.0058 26.7728 28.9124C26.1489 28.7299 25.5228 28.5771 24.9095 28.4625L24.7291 28.4307C24.485 28.3882 24.2452 28.3521 24.016 28.3224C23.9417 28.3118 23.8674 28.3033 23.7931 28.2948L23.7252 28.2863C23.5321 28.2651 23.3474 28.2503 23.1564 28.2354L22.8636 28.2142C22.7277 28.2078 22.5919 28.2036 22.454 28.2015C22.3797 28.2015 22.3075 28.1993 22.2311 28.1993H21.9786L21.3737 28.2206C21.2824 28.2248 21.1912 28.229 21.1084 28.2354L20.7582 28.2715C20.6054 28.2885 20.4548 28.3033 20.3083 28.3245L20.2383 28.3352C20.1746 28.3436 20.1109 28.3564 20.0218 28.3712L19.9433 28.3861C19.7608 28.4179 19.5804 28.454 19.4 28.4943C19.2896 28.5198 19.1814 28.5453 19.0731 28.5729C19.0413 28.5813 19.0073 28.5877 18.9776 28.5962C18.95 28.6026 18.9225 28.6089 18.8949 28.6153C18.8524 28.6259 18.81 28.6408 18.7548 28.6599L18.5574 28.7214C18.4322 28.7596 18.307 28.7978 18.1818 28.8403C18.0948 28.87 18.0099 28.9018 17.9122 28.94L17.7849 28.9888C17.7064 29.0185 17.6257 29.0483 17.5472 29.0801L17.3307 29.1713C17.2819 29.1926 17.231 29.2159 17.18 29.2414L17.0973 29.2796C16.9848 29.3305 16.8744 29.3857 16.762 29.4409L16.6473 29.4982C16.5964 29.5215 16.5476 29.547 16.4945 29.5725L16.3608 29.6489C16.2568 29.7062 16.155 29.7677 16.051 29.8293L15.8515 29.946C15.7921 29.9799 15.7348 30.0118 15.6753 30.05C15.4843 30.1709 15.2912 30.3025 15.0959 30.4447C15.0705 30.4638 15.0471 30.4808 15.0111 30.5105L14.7564 30.7058C14.6927 30.7546 14.629 30.8055 14.5675 30.8543C14.5314 30.884 14.4975 30.9138 14.4593 30.9456L14.3977 30.9986C14.2874 31.092 14.1791 31.1875 14.0751 31.283L13.9181 31.4358C13.8183 31.5335 13.7207 31.6311 13.6337 31.7223L13.4512 31.924C13.3726 32.011 13.2962 32.1001 13.2177 32.1956L13.0501 32.4057C13.0119 32.4524 12.9758 32.4991 12.9461 32.5394L12.7466 32.8238C12.6723 32.9321 12.6022 33.0403 12.528 33.1613L12.4346 33.3162C12.3688 33.4266 12.3072 33.539 12.2436 33.6621L12.1651 33.8107C12.1417 33.8574 12.1162 33.9041 12.0993 33.9423L11.9507 34.2712C11.9146 34.3561 11.8807 34.441 11.8488 34.5217L11.7512 34.7848C11.6939 34.9461 11.6408 35.1138 11.5878 35.3027L11.5475 35.4555C11.4965 35.6528 11.452 35.8629 11.4116 36.0964L11.3841 36.2598C11.348 36.4911 11.3246 36.7034 11.3076 36.9092V36.9432C11.3013 36.992 11.2992 37.0408 11.297 37.0939L11.2885 37.2743C11.2885 37.3061 11.2843 37.3401 11.2843 37.3592V37.7985C11.2843 37.8324 11.2843 37.8643 11.2864 37.9004L11.2928 37.9874V38.0404L11.297 38.0362ZM35.6653 33.503L35.782 33.1676C35.8563 32.9533 35.9242 32.7474 35.99 32.5416C36.0345 32.4036 36.0791 32.2635 36.1194 32.1298C36.2892 31.5695 36.4739 31.0114 36.6649 30.4723C36.945 29.6849 37.2421 28.9506 37.5414 28.2863C37.6369 28.0762 37.7303 27.8789 37.8215 27.69L37.847 27.6369C37.934 27.4587 38.0231 27.291 38.1059 27.1339L38.1547 27.0406C38.2354 26.892 38.316 26.7519 38.3967 26.6182L38.4391 26.5439C38.4603 26.5057 38.4837 26.4654 38.5049 26.4315C38.9124 25.7735 39.3008 25.2897 39.6637 24.9968C40.1879 24.5723 40.6017 24.5957 40.8543 24.6869C41.3169 24.8546 41.6247 25.3618 41.7987 26.2468L41.8327 26.4336C41.839 26.4654 41.8433 26.4973 41.8475 26.5185C42.2062 28.6471 42.4418 31.1642 42.6688 33.5985L42.7559 34.5195C42.7813 34.7912 42.8089 35.0522 42.8365 35.3133L42.8514 35.4597C43.0148 37.0323 43.1718 38.1741 43.3628 39.1631L43.6791 40.8015L42.5373 39.5855C42.3632 39.4008 42.1871 39.2162 42.0109 39.0315L41.9324 38.9509C41.839 38.8533 41.7456 38.7556 41.6438 38.6559C41.5886 38.6007 41.5334 38.5434 41.4761 38.4882L40.9668 37.9874C40.6675 37.6966 40.3449 37.3889 40.0054 37.0769L39.7549 36.8456C39.3538 36.4805 38.9867 36.1537 38.6344 35.8502L38.4646 35.708C38.1441 35.4364 37.8045 35.1562 37.4544 34.874C37.344 34.7848 37.2336 34.6978 37.1233 34.6108C36.6797 34.2606 36.3083 33.9762 35.9518 33.7152L35.6653 33.503ZM13.5042 38.1189C13.5233 37.9364 13.5509 37.7475 13.5891 37.5565L13.5997 37.5077C13.6294 37.3677 13.6655 37.2276 13.7037 37.0875C13.7249 37.009 13.7483 36.9305 13.7716 36.8541C13.8077 36.7395 13.848 36.6249 13.8905 36.5124C13.9223 36.4296 13.9563 36.3468 13.9902 36.2683C14.0348 36.1643 14.0836 36.0603 14.1345 35.9585C14.1834 35.8629 14.2301 35.7781 14.2767 35.6953C14.3171 35.621 14.3616 35.5489 14.4041 35.4788L14.4656 35.3791C14.5187 35.2963 14.5739 35.2178 14.6333 35.135C14.6672 35.0883 14.7012 35.0437 14.733 35.0013C14.7818 34.9355 14.8201 34.8867 14.8583 34.8379C14.9219 34.7594 14.9898 34.683 15.062 34.6023L15.1257 34.5323C15.1957 34.4559 15.2551 34.3943 15.3167 34.3328C15.3973 34.2521 15.4822 34.1757 15.5671 34.0993C15.6647 34.0123 15.7517 33.9359 15.843 33.8659C15.9343 33.7937 16.0298 33.7237 16.1253 33.6536C16.2271 33.5794 16.3311 33.5072 16.4372 33.4393C16.4754 33.4138 16.5158 33.3905 16.5497 33.3714L16.6134 33.3353C16.694 33.2865 16.7768 33.2398 16.8575 33.1952L16.9254 33.157C16.9827 33.1252 17.0421 33.0912 17.1015 33.0615C17.1673 33.0276 17.2352 32.9978 17.301 32.9681L17.3711 32.9363C17.526 32.8663 17.6767 32.7984 17.838 32.7368C17.9229 32.7028 18.012 32.6731 18.1181 32.6392L18.2242 32.6052C18.3855 32.5522 18.5511 32.4991 18.7166 32.4545C18.8015 32.4312 18.8885 32.41 18.9734 32.3909L19.1793 32.3442C19.3448 32.3081 19.5125 32.2741 19.6865 32.2444C19.7523 32.2338 19.8159 32.2232 19.8775 32.2147L19.9221 32.2084C20.0048 32.1956 20.0876 32.185 20.1746 32.1744C20.3614 32.1511 20.5524 32.132 20.754 32.115L20.9408 32.1022C21.0447 32.0959 21.1424 32.0874 21.2421 32.0831C21.4416 32.0746 21.656 32.0704 21.9191 32.0725H22.0656C22.1738 32.0725 22.2799 32.0725 22.3903 32.0768C22.6683 32.0853 22.9612 32.1065 23.2095 32.1256L23.3581 32.1362C23.4451 32.1426 23.5342 32.1468 23.6233 32.1574C24.0839 32.2041 24.5168 32.2614 24.9434 32.3336C25.3148 32.3951 25.7074 32.4673 26.1743 32.5585C26.3038 32.584 26.4311 32.6095 26.5818 32.6413L26.6773 32.6604C26.9341 32.7135 27.1888 32.7686 27.4392 32.8238L27.8319 32.9151C28.1714 32.9957 28.5068 33.0785 28.8251 33.1655L28.9142 33.1889C29.2729 33.2865 29.6273 33.3883 29.9669 33.4902L30.5357 33.6621L30.2513 34.1842C29.222 36.0688 28.0717 37.7539 26.7389 39.335L26.5712 39.5642H26.5457C26.0237 40.1712 25.4464 40.7803 24.8309 41.3809C24.7482 41.4616 24.6696 41.5358 24.6102 41.5889C24.5147 41.6865 24.4298 41.7672 24.3386 41.8521C24.0627 42.0983 23.7719 42.3402 23.4175 42.6119C23.201 42.7753 22.9718 42.9366 22.7171 43.1042L22.6152 43.17C22.3818 43.3207 22.1547 43.4544 21.951 43.5626L21.9085 43.586C21.6814 43.707 21.4501 43.8194 21.223 43.9192L21.1848 43.9362C20.9492 44.0359 20.72 44.1229 20.5014 44.1951C20.2446 44.2779 19.9794 44.3479 19.7098 44.3988L19.6737 44.4073C19.4297 44.454 19.1771 44.4837 18.9182 44.4986H18.8482C18.776 44.5049 18.7017 44.5049 18.6296 44.5049C18.4831 44.5049 18.3388 44.4986 18.1924 44.488L18.1202 44.4816C17.8846 44.4583 17.6597 44.4201 17.4517 44.3691C17.0909 44.2842 16.7365 44.1526 16.4075 43.985L16.3417 43.9531C16.1847 43.8704 16.0425 43.7791 15.9576 43.7239L15.9109 43.6942C15.8876 43.6794 15.8663 43.6666 15.8451 43.6518C15.7454 43.5817 15.6541 43.5096 15.548 43.4226L15.4992 43.3844C15.4589 43.3525 15.4207 43.3207 15.3888 43.2931C15.3315 43.2422 15.2785 43.1891 15.2254 43.1382L15.1066 43.0193C15.0641 42.9769 15.0238 42.9366 14.9813 42.892C14.9431 42.8496 14.9198 42.8198 14.8943 42.7901L14.8604 42.7477C14.7818 42.6543 14.7054 42.5609 14.6269 42.4548L14.5845 42.3933C14.4805 42.2468 14.3913 42.111 14.3107 41.9709C14.1261 41.6526 13.969 41.3109 13.8417 40.9586C13.6507 40.4195 13.5318 39.8571 13.4894 39.2883C13.4597 38.9 13.466 38.5095 13.5042 38.1274V38.1189Z" fill="#FFFDFD"/>
</svg>
