<svg width="85" height="85" viewBox="0 0 85 85" fill="none" xmlns="http://www.w3.org/2000/svg">
<g clip-path="url(#clip0_648_20)">
<rect width="85" height="85" fill="white"/>
<path d="M68.9219 18H69L68.2461 21.1655L67.6653 23.6207C64.41 23.922 61.6291 25.3824 59.2283 27.792C57.0672 29.9629 54.9342 32.1624 52.7567 34.3161C50.8285 36.2625 48.5213 37.7766 45.9835 38.7609C44.2415 39.4196 42.4116 39.8066 40.556 39.9088C40.1596 39.9372 39.7631 39.9487 39.3611 39.9487C37.1723 39.9601 34.9779 39.9487 32.7889 39.9601H32.7108C31.0132 39.9601 29.3102 39.9716 27.6129 40H27.3558C27.1435 40 24 39.9943 24 39.9943L25.2899 34.4702H28.9194C30.6393 34.4817 32.3592 34.4702 34.0844 34.4702C35.4524 34.4702 36.8261 34.4702 38.1941 34.4932C42.6613 34.5557 46.4414 33.0498 49.5572 29.7534C51.506 27.6914 53.5329 25.7013 55.5263 23.6839C59.2396 19.9493 63.7457 18.0967 68.9219 18Z" fill="#EB0100"/>
<path d="M29.9859 42C30.3814 41.9991 30.7708 41.9078 31.1214 41.7338C31.4719 41.5597 31.7733 41.3081 32 41C30.4889 41 29.1972 41.0107 28 41.0266C28.2252 41.3279 28.523 41.5735 28.8685 41.7429C29.214 41.9122 29.5972 42.0004 29.9859 42Z" fill="#0109C9"/>
<path d="M42.8412 42C43.3368 41.9994 43.8178 41.806 44.2074 41.4508C44.597 41.0957 44.8725 40.5992 44.9898 40.041L45 40C43.6988 40.4562 42.3566 40.7368 41 40.8362C41.1993 41.1936 41.4727 41.4874 41.7952 41.6907C42.1177 41.894 42.479 42.0003 42.846 42H42.8412Z" fill="#0109C9"/>
<path d="M53.7182 23.746H48.6424L49.9441 18H45.0688L43.7728 23.746H36.3816L37.683 18H32.8077L31.5063 23.746H28.1821L27 28.9529H30.3296L29.1963 33.9974C30.5249 34.0032 31.8806 33.9974 33.1875 33.9974H34.0768L34.7611 30.9648L35.2168 28.9529H42.634L41.5658 33.6958C43.5644 33.2687 45.4418 32.3473 47.0477 31.0053L47.0587 30.9646L47.5143 28.9527H49.1087C50.3343 27.6074 51.5923 26.2797 52.8179 24.9868C53.2138 24.5751 53.6049 24.1576 54 23.746H53.7289H53.7182Z" fill="#0109C9"/>
<mask id="mask0_648_20" style="mask-type:luminance" maskUnits="userSpaceOnUse" x="-16" y="48" width="95" height="14">
<path d="M79 48H-16V61.1538H79V48Z" fill="white"/>
</mask>
<g mask="url(#mask0_648_20)">
<path d="M59.9366 55.5483C59.6554 55.269 59.2353 55.0626 58.6759 54.9199L57.8203 54.7104C57.5892 54.674 57.3738 54.5706 57.2008 54.4129C57.0791 54.2809 57.0129 54.1069 57.0161 53.9272C57.0123 53.8074 57.0412 53.6888 57.0992 53.5841C57.1572 53.4794 57.2425 53.3925 57.3456 53.3326C57.6134 53.1779 57.92 53.1041 58.2285 53.1201C58.5583 53.1127 58.886 53.1716 59.1929 53.2932C59.4463 53.3966 59.6883 53.5258 59.9153 53.6787L60.3561 52.983C60.1116 52.8202 59.8548 52.6771 59.588 52.555C59.234 52.3849 58.7687 52.2999 58.1912 52.2999C57.8708 52.2932 57.5516 52.3373 57.245 52.4305C57.001 52.5058 56.7731 52.6254 56.5718 52.7833C56.3978 52.9222 56.2598 53.1013 56.1699 53.3054C56.0843 53.5017 56.0401 53.7136 56.0397 53.9278C56.025 54.2855 56.1498 54.635 56.3875 54.9018C56.6173 55.1538 56.986 55.3445 57.4879 55.4786L58.5157 55.7518C59.0873 55.891 59.3713 56.1981 59.3713 56.6687C59.3713 57.2486 58.943 57.539 58.0865 57.54C57.7385 57.546 57.3929 57.4809 57.0706 57.3487C56.8697 57.255 56.675 57.1486 56.4872 57.03L56.0463 57.7737C56.2156 57.877 56.4486 58.0166 56.5574 58.0682C56.7731 58.1643 56.9995 58.2346 57.2315 58.2777C57.5171 58.3343 57.8078 58.3618 58.099 58.3597C58.8336 58.3597 59.3952 58.2109 59.783 57.9134C59.9727 57.7685 60.1247 57.5796 60.2257 57.3628C60.327 57.146 60.374 56.9078 60.3633 56.6687C60.3737 56.4625 60.3417 56.2564 60.2696 56.0632C60.1972 55.87 60.0862 55.6937 59.9432 55.5454L59.9366 55.5483Z" fill="#222326"/>
<path d="M63.8636 57.4732C63.7115 57.5187 63.5538 57.5432 63.3952 57.5461C63.1202 57.5634 62.8468 57.4921 62.6151 57.3427C62.4276 57.2061 62.337 56.9759 62.337 56.6444V53.1108H64.3593V52.2942H62.337V50.7823H61.3516V56.7023C61.3516 57.2968 61.53 57.7193 61.8868 57.9743C62.2432 58.2293 62.7088 58.3568 63.2832 58.3568C63.5874 58.3708 63.8902 58.3145 64.169 58.1924C64.2357 58.159 64.2991 58.1256 64.3596 58.0983L63.9664 57.4364C63.9329 57.4494 63.8987 57.4605 63.8639 57.4698L63.8636 57.4732Z" fill="#222326"/>
<path d="M70.1395 56.9207C70.0511 56.9905 69.964 57.0598 69.8793 57.115C69.6053 57.2882 69.3005 57.4067 68.9817 57.4641C67.7997 57.6888 66.9983 57.282 66.5756 56.2528L70.6804 54.8381C70.6804 54.8381 70.6443 54.577 70.6111 54.3979C70.5496 54.05 70.4202 53.7178 70.2302 53.4203C70.0527 53.1441 69.8226 52.9057 69.5529 52.719C69.2827 52.5338 68.977 52.4076 68.655 52.3487C68.3079 52.285 67.952 52.2881 67.6059 52.3578C67.2328 52.4233 66.8763 52.5626 66.5571 52.7676C66.2552 52.9585 65.9981 53.2132 65.8044 53.5139C65.6049 53.8274 65.472 54.1788 65.4137 54.5461C65.3485 54.9728 65.3598 55.4077 65.4469 55.8303C65.6316 56.82 66.0486 57.5243 66.6957 57.9342C67.3425 58.344 68.1408 58.4624 69.0867 58.2833C69.3391 58.2361 69.5862 58.1641 69.8244 58.0683C70.0276 57.9853 70.2214 57.8805 70.402 57.7556C70.4775 57.704 70.5832 57.6164 70.6892 57.5249L70.1449 56.9207H70.1395ZM66.6054 53.9121C66.7308 53.7118 66.8973 53.5407 67.0939 53.4104C67.2905 53.28 67.5125 53.1933 67.7451 53.1562C68.2317 53.0651 68.6431 53.138 68.9694 53.3748C69.3056 53.6282 69.5454 53.9891 69.6498 54.3979L66.3728 55.4999C66.2699 54.8502 66.3455 54.322 66.6054 53.9121Z" fill="#222326"/>
<path d="M76.4638 56.9207C76.3757 56.9905 76.2885 57.0598 76.2038 57.115C75.9295 57.2882 75.6248 57.4068 75.3059 57.4641C74.1239 57.6888 73.3228 57.282 72.8999 56.2528L77.0046 54.8381C77.0046 54.8381 76.9686 54.577 76.9353 54.3979C76.8736 54.05 76.7444 53.7178 76.5544 53.4203C76.3766 53.1441 76.1465 52.9057 75.8772 52.719C75.6069 52.5338 75.3012 52.4076 74.9792 52.3487C74.6321 52.285 74.2763 52.2881 73.9301 52.3578C73.557 52.4233 73.2005 52.5626 72.8814 52.7676C72.5791 52.9585 72.3223 53.2132 72.1286 53.5139C71.9292 53.8274 71.7962 54.1788 71.7379 54.5461C71.6727 54.9728 71.684 55.4077 71.7711 55.8303C71.9555 56.82 72.3728 57.5243 73.0196 57.9342C73.6668 58.344 74.4647 58.4624 75.4109 58.2833C75.6633 58.2361 75.9104 58.1641 76.1487 58.0683C76.3518 57.9853 76.5456 57.8805 76.7262 57.7556C76.8017 57.7039 76.9074 57.6164 77.0134 57.5248L76.4691 56.9207H76.4638ZM72.9296 53.9121C73.0551 53.7118 73.2215 53.5407 73.4181 53.4103C73.6147 53.28 73.8367 53.1933 74.0693 53.1562C74.5562 53.0651 74.9673 53.138 75.2937 53.3748C75.6298 53.6282 75.8696 53.9891 75.974 54.3979L72.697 55.4999C72.5942 54.8502 72.6697 54.322 72.9296 53.9121Z" fill="#222326"/>
<path d="M78.0173 58.3626V50.7852H78.9999V58.3622H78.0173V58.3626Z" fill="#222326"/>
<path d="M16.8013 50.7855V53.6391H14.2378V50.7855H12.4058V58.3599H14.2378V55.5061H16.8013V58.3599H18.6364V50.7855H16.8013Z" fill="#222326"/>
<path d="M24.7423 53.4719C24.6172 53.2094 24.4291 52.982 24.1952 52.8101C23.9375 52.6273 23.6469 52.4964 23.3396 52.4245C22.9753 52.3385 22.6015 52.2967 22.2272 52.3001C21.8604 52.3022 21.4948 52.3419 21.1358 52.4185C20.6765 52.5348 20.2262 52.684 19.7879 52.8647L20.3413 54.0158C20.3413 54.0158 20.8251 53.8398 21.1123 53.7669C21.3992 53.6967 21.6936 53.661 21.9889 53.6607C22.2933 53.6428 22.5972 53.7034 22.8715 53.8367C22.9696 53.8908 23.0505 53.9717 23.1045 54.0701C23.1587 54.1684 23.1838 54.2801 23.1769 54.3923V54.5228L21.6111 54.6898C20.9433 54.7596 20.447 54.9387 20.1265 55.2211C19.8033 55.5065 19.6431 55.9193 19.6431 56.4628C19.6431 57.1003 19.8829 57.5759 20.3623 57.8896C20.8401 58.2023 21.4869 58.3577 22.2943 58.3577H24.9333V54.4161C24.9411 54.0897 24.875 53.7658 24.7398 53.4689L24.7423 53.4719ZM23.1916 56.8325V57.0209H22.2604C21.9582 57.0148 21.7343 56.9602 21.5982 56.8539C21.5296 56.8017 21.4744 56.7336 21.4377 56.6553C21.4007 56.5771 21.3835 56.4911 21.3869 56.4046C21.3819 56.3218 21.401 56.2393 21.4418 56.1671C21.4826 56.0949 21.5434 56.0361 21.6164 55.9978C21.8042 55.8968 22.0115 55.8377 22.2241 55.8247L23.1916 55.7428V56.8325Z" fill="#222326"/>
<path d="M47.9079 53.4719C47.7828 53.2094 47.5947 52.982 47.3608 52.8101C47.1031 52.6273 46.8125 52.4964 46.5052 52.4245C46.1406 52.3385 45.7671 52.2967 45.3928 52.3001C45.026 52.3022 44.6601 52.3419 44.3014 52.4185C43.8421 52.5348 43.3918 52.684 42.9535 52.8647L43.5069 54.0158C43.5069 54.0158 43.9904 53.8398 44.2776 53.7669C44.5648 53.6967 44.8588 53.661 45.1545 53.6607C45.4586 53.6428 45.7628 53.7034 46.0371 53.8367C46.1352 53.8908 46.2161 53.9717 46.27 54.0701C46.324 54.1684 46.3491 54.2801 46.3425 54.3923V54.5228L44.7764 54.6898C44.1089 54.7596 43.6126 54.9387 43.2921 55.2211C42.9686 55.5065 42.8083 55.9193 42.8083 56.4628C42.8083 57.1003 43.0482 57.5759 43.5279 57.8896C44.0057 58.2023 44.6525 58.3577 45.4599 58.3577H48.0989V54.4161C48.1067 54.0897 48.0406 53.7658 47.9054 53.4689L47.9079 53.4719ZM46.3572 56.8325V57.0209H45.426C45.1238 57.0148 44.8999 56.9602 44.7638 56.8539C44.6952 56.8017 44.64 56.7336 44.603 56.6553C44.5663 56.5771 44.5488 56.4911 44.5522 56.4046C44.5475 56.3218 44.5666 56.2393 44.6074 56.1671C44.6482 56.0949 44.7087 56.0361 44.782 55.9978C44.9698 55.8968 45.1771 55.8377 45.3897 55.8247L46.3572 55.7428V56.8325Z" fill="#222326"/>
<path d="M30.7581 56.5018C30.7697 56.7655 30.7164 57.0282 30.6032 57.2664C30.4897 57.5047 30.3198 57.7112 30.1081 57.8679C29.6758 58.1958 29.0399 58.3597 28.2006 58.3597C27.8977 58.362 27.5952 58.3376 27.2967 58.2868C26.9042 58.2071 26.5201 58.0892 26.1504 57.9347L26.8935 56.7416C26.954 56.7689 27.0321 56.7962 27.1264 56.8302C27.4541 56.9392 27.798 56.9916 28.1432 56.9851C28.6994 56.9851 28.9807 56.8272 28.9807 56.5115C28.9841 56.4515 28.9722 56.3917 28.9462 56.3375C28.9205 56.2834 28.8813 56.2367 28.8324 56.2018C28.6778 56.1097 28.5079 56.0459 28.3307 56.0136L27.8592 55.9074C27.2152 55.7707 26.738 55.5674 26.4232 55.285C26.1081 55.0057 25.9516 54.6146 25.9516 54.1071C25.9444 53.8458 26.0028 53.587 26.1213 53.3542C26.2395 53.1214 26.4138 52.922 26.6286 52.7743C27.0791 52.4464 27.6858 52.2825 28.4486 52.2825C28.717 52.2812 28.9847 52.3024 29.2497 52.3458C29.324 52.3571 29.3977 52.3723 29.4704 52.3913C29.4704 52.3913 29.5187 52.4039 29.6005 52.4278C29.9448 52.5178 30.2784 52.645 30.5954 52.8072L29.9003 53.9244L29.873 53.9153C29.7491 53.8667 29.619 53.8268 29.477 53.7848C29.3287 53.7446 29.1782 53.7132 29.0264 53.6907C28.8825 53.6673 28.7371 53.6552 28.5913 53.6542C28.3709 53.645 28.1514 53.6833 27.9473 53.7666C27.8792 53.7931 27.8206 53.8398 27.7795 53.9005C27.7385 53.9613 27.7168 54.0332 27.7175 54.1066C27.7153 54.1572 27.7262 54.2074 27.7491 54.2526C27.7717 54.2978 27.8056 54.3363 27.8476 54.3646C27.993 54.4507 28.1529 54.5103 28.3191 54.5407L28.7665 54.647C29.4829 54.8048 29.9909 55.0325 30.2962 55.3331C30.4489 55.4831 30.5684 55.6635 30.6477 55.8627C30.7267 56.0618 30.7637 56.2754 30.7556 56.4898L30.7581 56.5018Z" fill="#222326"/>
<path d="M37.2244 54.5951C37.2244 53.83 37.0109 53.2563 36.5836 52.8737C36.1544 52.4912 35.5649 52.2999 34.809 52.2999C34.5811 52.2976 34.3537 52.3231 34.1318 52.3758C33.9402 52.4211 33.754 52.4862 33.5756 52.5701V50.7852H31.7709V58.3622H33.5759V54.3856C33.5746 54.2575 33.6129 54.1322 33.6856 54.0269C33.758 53.9215 33.8612 53.8413 33.981 53.797H33.9838C34.1437 53.7441 34.3114 53.7185 34.4798 53.7211C34.725 53.7113 34.9654 53.7911 35.1567 53.9458C35.326 54.0915 35.4138 54.3313 35.4198 54.6683V58.3626H37.2248V58.2685L37.2244 54.5951Z" fill="#222326"/>
<path d="M41.8014 58.1619L41.5415 56.8295C41.5415 56.8295 41.339 56.8721 41.2029 56.8995C41.0762 56.9216 40.9474 56.9308 40.8188 56.9268C40.6119 56.939 40.4062 56.887 40.2294 56.7777C40.1573 56.7221 40.1002 56.6493 40.0632 56.5659C40.0262 56.4825 40.0109 56.3911 40.0178 56.3001V53.7511H41.8046V52.3062H40.045V50.7882H38.2404V55.9778C38.2404 57.1064 38.4247 57.6022 38.7937 57.9063C39.1625 58.2104 39.6763 58.3626 40.3385 58.3626H40.4501C40.9069 58.3289 41.3603 58.2628 41.8077 58.1649L41.8014 58.1619Z" fill="#222326"/>
<path d="M49.973 60.746C50.2131 60.883 50.4734 60.9814 50.7439 61.0377C51.1283 61.1205 51.5209 61.1591 51.9137 61.1525C52.3229 61.1563 52.7308 61.1041 53.1261 60.9974C53.4773 60.9062 53.8078 60.7482 54.0993 60.5318C54.3759 60.3246 54.5979 60.053 54.7465 59.7405C54.9092 59.3813 54.9888 58.9899 54.9791 58.5955V53.2403C54.9007 53.1844 54.6226 52.9828 54.4834 52.8861C54.2025 52.7122 53.8996 52.5775 53.5827 52.4858C53.1685 52.3573 52.7371 52.2945 52.3038 52.2995C51.8658 52.2956 51.4296 52.3627 51.0129 52.4981C50.6449 52.6214 50.3072 52.8213 50.0212 53.0846C49.7384 53.3508 49.5202 53.6789 49.3835 54.0434C49.228 54.4685 49.1524 54.9188 49.1597 55.3716C49.1477 55.85 49.2236 56.3265 49.3835 56.7774C49.5118 57.1267 49.7152 57.4435 49.9789 57.7052C50.2247 57.9411 50.522 58.1164 50.8468 58.2172C51.1913 58.3237 51.55 58.3771 51.9109 58.3755C52.1482 58.3787 52.3856 58.3558 52.6182 58.3072C52.8092 58.2638 52.9957 58.2014 53.1744 58.121L53.2409 58.09V58.5423C53.2409 58.9489 53.0957 59.2436 52.8085 59.4205C52.5304 59.5942 52.1467 59.6812 51.6689 59.6812C51.3327 59.6835 50.9982 59.6332 50.6775 59.5321C50.6289 59.5166 50.5806 59.5012 50.5323 59.4824L49.846 60.6554C49.8792 60.6807 49.9156 60.705 49.9488 60.7299L49.9698 60.7455L49.973 60.746ZM53.2227 56.6785L53.2045 56.6941C53.0794 56.7866 52.9408 56.8588 52.7935 56.9083C52.6198 56.9654 52.4379 56.9926 52.2555 56.989C52.0849 56.9909 51.915 56.9636 51.7535 56.9083C51.5977 56.8547 51.4582 56.7618 51.3484 56.6383C51.2243 56.4931 51.1324 56.3227 51.0794 56.1387C51.0098 55.8936 50.9772 55.6394 50.9825 55.3846C50.9825 54.8322 51.1126 54.4164 51.3697 54.1527C51.5014 54.0202 51.6594 53.9165 51.8331 53.8481C52.0068 53.7797 52.1928 53.7482 52.3793 53.7555C52.5402 53.7514 52.7004 53.7734 52.8543 53.8205C52.96 53.8609 53.081 53.9043 53.1898 53.954L53.2199 53.9666V56.6785H53.2227Z" fill="#222326"/>
<path d="M12.9692 61.1537V60.5221L12.4058 59.6114H12.7601L13.1236 60.2312L13.4841 59.6114H13.8385L13.2811 60.5221V61.1537H12.9692Z" fill="#222326"/>
<path d="M14.2986 60.3815C14.2974 60.2801 14.3161 60.1793 14.3539 60.0852C14.3917 59.991 14.4477 59.9054 14.5187 59.8331C14.5897 59.7609 14.6743 59.7036 14.7675 59.6644C14.8608 59.6253 14.9609 59.6051 15.0619 59.6051C15.163 59.6051 15.2631 59.6253 15.3562 59.6644C15.4497 59.7036 15.534 59.7609 15.6052 59.8331C15.676 59.9054 15.7321 59.991 15.7701 60.0852C15.8077 60.1793 15.8265 60.2801 15.8253 60.3815C15.8265 60.483 15.8077 60.5837 15.7701 60.6779C15.7321 60.772 15.676 60.8577 15.6052 60.9299C15.534 61.0021 15.4497 61.0595 15.3562 61.0986C15.2631 61.1378 15.163 61.1579 15.0619 61.1579C14.9609 61.1579 14.8608 61.1378 14.7675 61.0986C14.6743 61.0595 14.5897 61.0021 14.5187 60.9299C14.4477 60.8577 14.3917 60.772 14.3539 60.6779C14.3161 60.5837 14.2974 60.483 14.2986 60.3815ZM15.5042 60.3815C15.5095 60.3195 15.502 60.2571 15.4819 60.1982C15.4622 60.1393 15.4302 60.0852 15.3882 60.0393C15.3464 59.9934 15.2955 59.9568 15.2388 59.9317C15.1821 59.9066 15.1208 59.8937 15.0588 59.8936C14.7893 59.8936 14.6166 60.1031 14.6166 60.3815C14.6166 60.6599 14.7893 60.8694 15.0588 60.8694C15.1207 60.8691 15.1819 60.856 15.2385 60.8309C15.2951 60.8057 15.3459 60.7691 15.3876 60.7232C15.4296 60.6774 15.4616 60.6234 15.4816 60.5646C15.5014 60.5058 15.5092 60.4435 15.5042 60.3815Z" fill="#222326"/>
<path d="M16.5278 60.5212V59.6118H16.8426V60.5091C16.8414 60.5554 16.8489 60.6016 16.8655 60.6448C16.8821 60.688 16.9072 60.7275 16.9392 60.7607C16.9715 60.7941 17.0097 60.8205 17.0524 60.8386C17.0947 60.8567 17.1405 60.866 17.1866 60.866C17.2326 60.866 17.2784 60.8567 17.3208 60.8386C17.3634 60.8205 17.4016 60.7941 17.4339 60.7607C17.4659 60.7275 17.491 60.688 17.5076 60.6448C17.5242 60.6016 17.5321 60.5554 17.5305 60.5091V59.6118H17.8484V60.5182C17.8484 60.8954 17.6333 61.1507 17.1881 61.1507C16.7429 61.1507 16.5278 60.8924 16.5278 60.5212Z" fill="#222326"/>
<path d="M19.442 61.1538L19.1541 60.606H18.9275V61.1541H18.6149V59.6117H19.299C19.3645 59.6079 19.4304 59.6181 19.4918 59.6417C19.5533 59.6653 19.6091 59.7017 19.6555 59.7485C19.7019 59.7953 19.7379 59.8515 19.7611 59.9134C19.7843 59.9752 19.7944 60.0413 19.7903 60.1072C19.7997 60.2095 19.7724 60.3118 19.7138 60.3958C19.6549 60.4798 19.5683 60.5399 19.4692 60.5655L19.7966 61.1538H19.4391H19.442ZM19.4721 60.1103C19.473 60.0818 19.4677 60.0535 19.457 60.0272C19.446 60.0009 19.4297 59.9772 19.4094 59.9576C19.3887 59.938 19.3642 59.923 19.3376 59.9136C19.3109 59.9041 19.2824 59.9005 19.2542 59.9028H18.9265V60.3177H19.2542C19.2824 60.32 19.3109 60.3164 19.3376 60.307C19.3642 60.2975 19.3887 60.2825 19.4094 60.2629C19.4297 60.2433 19.446 60.2196 19.457 60.1933C19.4677 60.167 19.473 60.1387 19.4721 60.1103Z" fill="#222326"/>
<path d="M21.4529 60.9143L21.6225 60.6718C21.6821 60.7354 21.7539 60.786 21.8335 60.8206C21.9131 60.855 21.9991 60.8727 22.0859 60.8723C22.2555 60.8723 22.3405 60.7915 22.3405 60.7078C22.3405 60.4445 21.4983 60.624 21.4983 60.0644C21.4983 59.8159 21.7075 59.6124 22.0527 59.6124C22.2618 59.6049 22.4659 59.6789 22.622 59.819L22.4493 60.0525C22.3333 59.947 22.1818 59.8894 22.0254 59.8908C21.8921 59.8908 21.8166 59.9506 21.8166 60.0405C21.8166 60.2769 22.6556 60.1183 22.6556 60.675C22.6556 60.9473 22.4646 61.1539 22.0709 61.1539C21.9574 61.1594 21.8435 61.1412 21.7373 61.1005C21.631 61.0598 21.5341 60.9975 21.4529 60.9175V60.9143Z" fill="#222326"/>
<path d="M23.6579 61.1538V59.9026H23.2308V59.6146H24.3969V59.9026H23.9726V61.1538H23.6607H23.6579Z" fill="#222326"/>
<path d="M25.076 61.1539V59.6118H26.1088V59.8998H25.3849V60.2249H26.0938V60.5129H25.3849V60.8628H26.1088V61.1508H25.076V61.1539Z" fill="#222326"/>
<path d="M26.8356 61.1539V59.6118H27.8683V59.8998H27.1447V60.2249H27.8533V60.5129H27.1447V60.8628H27.8683V61.1508H26.8356V61.1539Z" fill="#222326"/>
<path d="M28.5951 61.1539V59.6118H28.9077V60.8628H29.5247V61.1508H28.5951V61.1539Z" fill="#222326"/>
<path d="M31.6755 61.1539V60.5221L31.1121 59.6114H31.4664L31.8297 60.2312L32.1903 59.6114H32.5446L31.9871 60.5221V61.1539H31.6755Z" fill="#222326"/>
<path d="M33.0056 60.3815C33.0043 60.2801 33.0231 60.1793 33.0607 60.0852C33.0987 59.991 33.1545 59.9054 33.2256 59.8331C33.2965 59.7609 33.3812 59.7036 33.4743 59.6644C33.5677 59.6253 33.6677 59.6051 33.7687 59.6051C33.87 59.6051 33.97 59.6253 34.0631 59.6644C34.1565 59.7036 34.2409 59.7609 34.312 59.8331C34.3829 59.9054 34.439 59.991 34.477 60.0852C34.5146 60.1793 34.5334 60.2801 34.5321 60.3815C34.5334 60.483 34.5146 60.5837 34.477 60.6779C34.439 60.772 34.3829 60.8577 34.312 60.9299C34.2409 61.0021 34.1565 61.0595 34.0631 61.0986C33.97 61.1378 33.87 61.1579 33.7687 61.1579C33.6677 61.1579 33.5677 61.1378 33.4743 61.0986C33.3812 61.0595 33.2965 61.0021 33.2256 60.9299C33.1545 60.8577 33.0987 60.772 33.0607 60.6779C33.0231 60.5837 33.0043 60.483 33.0056 60.3815ZM34.2142 60.3815C34.2195 60.3195 34.212 60.2571 34.192 60.1982C34.1722 60.1393 34.1402 60.0852 34.0982 60.0393C34.0565 59.9934 34.0054 59.9568 33.949 59.9317C33.8922 59.9066 33.8308 59.8937 33.769 59.8936C33.4994 59.8936 33.3266 60.1031 33.3266 60.3815C33.3266 60.6599 33.4994 60.8697 33.769 60.8697C33.8308 60.8694 33.8919 60.8563 33.9487 60.8311C34.0051 60.8059 34.0559 60.7692 34.0979 60.7234C34.1396 60.6775 34.1716 60.6235 34.1916 60.5647C34.2117 60.5059 34.2192 60.4435 34.2142 60.3815Z" fill="#222326"/>
<path d="M35.2347 60.5212V59.6118H35.5495V60.5091C35.5483 60.5554 35.5558 60.6016 35.5724 60.6448C35.589 60.688 35.6141 60.7275 35.6464 60.7607C35.6784 60.7941 35.7166 60.8205 35.7593 60.8386C35.8016 60.8567 35.8474 60.866 35.8935 60.866C35.9396 60.866 35.9853 60.8567 36.0277 60.8386C36.0703 60.8205 36.1086 60.7941 36.1408 60.7607C36.1728 60.7275 36.1979 60.688 36.2145 60.6448C36.2311 60.6016 36.239 60.5554 36.2374 60.5091V59.6118H36.5553V60.5182C36.5553 60.8954 36.3403 61.1507 35.895 61.1507C35.4498 61.1507 35.2347 60.8924 35.2347 60.5212Z" fill="#222326"/>
<path d="M38.1488 61.1539L37.8609 60.606H37.6342V61.1541H37.3217V59.6118H38.0064C38.0719 59.6082 38.1378 59.6186 38.1989 59.6423C38.2604 59.6659 38.3162 59.7023 38.3623 59.7491C38.4087 59.7959 38.4447 59.852 38.4682 59.9137C38.4914 59.9754 38.5015 60.0414 38.4977 60.1073C38.5071 60.2095 38.4802 60.3118 38.4212 60.3958C38.3623 60.4798 38.2757 60.54 38.1767 60.5655L38.504 61.1539H38.1466H38.1488ZM38.1792 60.1103C38.1798 60.0818 38.1748 60.0535 38.1638 60.0272C38.1531 60.0009 38.1368 59.9772 38.1161 59.9576C38.0958 59.938 38.0713 59.923 38.0443 59.9136C38.0177 59.9042 37.9892 59.9005 37.9609 59.9028H37.6336V60.3177H37.9609C37.9892 60.3201 38.0177 60.3164 38.0443 60.307C38.0713 60.2975 38.0958 60.2825 38.1161 60.2629C38.1368 60.2434 38.1531 60.2197 38.1638 60.1934C38.1748 60.1671 38.1798 60.1387 38.1792 60.1103Z" fill="#222326"/>
<path d="M40.2568 61.1539V59.6118H40.9413C41.0071 59.6081 41.0726 59.6184 41.1341 59.642C41.1956 59.6656 41.2514 59.702 41.2978 59.7488C41.3442 59.7956 41.3802 59.8518 41.4034 59.9135C41.4266 59.9753 41.4367 60.0413 41.4326 60.1072C41.4363 60.173 41.426 60.2389 41.4025 60.3005C41.3793 60.3621 41.3432 60.4181 41.2968 60.4648C41.2504 60.5115 41.1949 60.548 41.1338 60.5717C41.0723 60.5955 41.0068 60.606 40.9413 60.6027H40.5691V61.1508H40.2568V61.1539ZM41.114 60.1103C41.115 60.082 41.1103 60.0538 41.0999 60.0275C41.0893 60.0012 41.0733 59.9775 41.0529 59.9578C41.0325 59.9382 41.0084 59.9232 40.9817 59.9137C40.9554 59.9042 40.9269 59.9005 40.8989 59.9028H40.5691V60.3177H40.8993C40.9272 60.3198 40.9554 60.3159 40.982 60.3063C41.0084 60.2967 41.0325 60.2817 41.0529 60.2621C41.073 60.2425 41.0889 60.2189 41.0996 60.1927C41.1103 60.1666 41.115 60.1385 41.114 60.1103Z" fill="#222326"/>
<path d="M42.9348 61.1539L42.6469 60.606H42.4199V61.1541H42.1077V59.6118H42.7921C42.8576 59.6082 42.9235 59.6186 42.9849 59.6423C43.0461 59.6659 43.1019 59.7023 43.1483 59.7491C43.1947 59.7959 43.2307 59.852 43.2539 59.9137C43.2771 59.9754 43.2872 60.0414 43.2834 60.1073C43.2928 60.2095 43.2659 60.3118 43.2069 60.3958C43.148 60.4798 43.0614 60.54 42.9624 60.5655L43.2897 61.1539H42.9326H42.9348ZM42.9649 60.1103C42.9658 60.0818 42.9605 60.0535 42.9495 60.0272C42.9388 60.0009 42.9225 59.9772 42.9022 59.9576C42.8815 59.938 42.857 59.923 42.8304 59.9136C42.8034 59.9042 42.7752 59.9005 42.747 59.9028H42.4193V60.3177H42.747C42.7752 60.3201 42.8034 60.3164 42.8304 60.307C42.857 60.2975 42.8815 60.2825 42.9022 60.2629C42.9225 60.2434 42.9388 60.2197 42.9495 60.1934C42.9605 60.1671 42.9658 60.1387 42.9649 60.1103Z" fill="#222326"/>
<path d="M44.0004 61.1539V59.6118H44.3123V61.1539H44.0004Z" fill="#222326"/>
<path d="M45.0125 60.3815C45.0097 60.2787 45.0279 60.1763 45.0664 60.0809C45.1047 59.9855 45.162 59.8991 45.2351 59.827C45.3081 59.7548 45.395 59.6985 45.4906 59.6616C45.5863 59.6246 45.6885 59.6078 45.7907 59.6123C45.9167 59.6093 46.0409 59.642 46.149 59.7066C46.2572 59.7712 46.345 59.865 46.4027 59.9775L46.1362 60.1122C46.1033 60.0484 46.0537 59.9948 45.9929 59.9569C45.9321 59.9191 45.8622 59.8984 45.7907 59.8971C45.7283 59.8969 45.6662 59.9096 45.6088 59.9344C45.5514 59.9592 45.4994 59.9956 45.4568 60.0414C45.4138 60.0871 45.3806 60.1412 45.3596 60.2003C45.3382 60.2595 45.3295 60.3223 45.3335 60.385C45.3298 60.4477 45.3389 60.5104 45.3599 60.5694C45.3812 60.6284 45.4144 60.6824 45.4571 60.7281C45.5 60.7738 45.5518 60.8102 45.6091 60.8351C45.6665 60.86 45.7283 60.8729 45.7907 60.8729C45.8625 60.8718 45.9324 60.8513 45.9932 60.8134C46.0537 60.7755 46.1033 60.7218 46.1362 60.6579L46.4027 60.7896C46.345 60.902 46.2572 60.9958 46.149 61.0604C46.0409 61.125 45.9167 61.1577 45.7907 61.1547C45.6885 61.1592 45.5863 61.1424 45.4906 61.1054C45.395 61.0685 45.3081 61.0122 45.2351 60.9401C45.162 60.8679 45.1047 60.7815 45.0664 60.6861C45.0279 60.5907 45.0097 60.4884 45.0125 60.3855V60.3815Z" fill="#222326"/>
<path d="M47.069 61.1539V59.6118H48.1021V59.8998H47.3781V60.2249H48.0867V60.5129H47.3781V60.8628H48.1021V61.1508H47.069V61.1539Z" fill="#222326"/>
</g>
</g>
<rect x="0.5" y="0.5" width="84" height="84" stroke="black"/>
<defs>
<clipPath id="clip0_648_20">
<rect width="85" height="85" fill="white"/>
</clipPath>
</defs>
</svg>
