<svg xmlns="http://www.w3.org/2000/svg" xmlns:xlink="http://www.w3.org/1999/xlink" width="46.457" height="44.198" viewBox="0 0 46.457 44.198">
  <defs>
    <linearGradient id="linear-gradient" x1="0.5" x2="0.5" y2="1" gradientUnits="objectBoundingBox">
      <stop offset="0" stop-color="#a3d94f"/>
      <stop offset="1" stop-color="#36b194"/>
    </linearGradient>
  </defs>
  <path id="Union_1" data-name="Union 1" d="M21.963,28.024a31.764,31.764,0,0,1-2.462-2.6,16.218,16.218,0,0,0-7.478-4.673,17.279,17.279,0,0,0-3.643-.628V8.346a16.226,16.226,0,0,0,9.412-3.693c1.4-1,2.83-3.057,4.128-4.187a2.587,2.587,0,0,1,4.045,2.11V25.889a2.6,2.6,0,0,1-2.622,2.576A2.349,2.349,0,0,1,21.963,28.024ZM2.519,25.956v-4.43a6.088,6.088,0,0,0,1.675.243h3.35v4.187a2.433,2.433,0,0,1-2.51,2.484A2.437,2.437,0,0,1,2.519,25.956ZM32.07,24.038l-2.512-2.512a.835.835,0,1,1,1.181-1.181l2.512,2.512a.843.843,0,0,1-.61,1.431A.8.8,0,0,1,32.07,24.038ZM.082,16.661c-.142-.511-.05-3.517-.075-4.1A4.189,4.189,0,0,1,4.193,8.371H6.706V20.094H4.161A4.223,4.223,0,0,1,.082,16.661ZM30.99,15.07a.837.837,0,0,1,0-1.675h5.024a.837.837,0,0,1,0,1.675ZM29.566,6.947l2.512-2.512a.835.835,0,1,1,1.181,1.181L30.747,8.128a.858.858,0,0,1-.595.243h-.028A.837.837,0,0,1,29.566,6.947Z" transform="translate(0 20.599) rotate(-34)" fill="url(#linear-gradient)"/>
</svg>
