<svg width="120" height="86" viewBox="0 0 120 86" fill="none" xmlns="http://www.w3.org/2000/svg">
<g clip-path="url(#clip0_660_1855)">
<mask id="mask0_660_1855" style="mask-type:luminance" maskUnits="userSpaceOnUse" x="3" y="35" width="114" height="16">
<path d="M117 35H3V51H117V35Z" fill="white"/>
</mask>
<g mask="url(#mask0_660_1855)">
<path d="M33.1628 35H33.2153L32.7091 37.1258L32.3191 38.7746C30.1333 38.977 28.266 39.9577 26.654 41.5759C25.2029 43.0338 23.7707 44.5109 22.3085 45.9572C21.0138 47.2644 19.4646 48.2812 17.7606 48.9422C16.5909 49.3846 15.3622 49.6445 14.1162 49.7131C13.85 49.7322 13.5839 49.7398 13.3139 49.7398C11.8442 49.7475 10.3708 49.7398 8.9009 49.7475H8.84846C7.70861 49.7475 6.56511 49.7552 5.4254 49.7743H5.25279C5.11024 49.7743 2.99951 49.7705 2.99951 49.7705L3.86563 46.0608H6.30271C7.45754 46.0685 8.61237 46.0608 9.7708 46.0608C10.6894 46.0608 11.6117 46.0608 12.5303 46.0762C15.5298 46.1182 18.068 45.1068 20.1602 42.8931C21.4687 41.5083 22.8297 40.1719 24.1682 38.8171C26.6615 36.3091 29.6872 35.0649 33.1628 35Z" fill="#EB0100"/>
<path d="M7.11008 50.9984C7.3751 50.9978 7.6361 50.9323 7.87102 50.8074C8.10594 50.6825 8.3079 50.502 8.45987 50.2809C7.44715 50.2809 6.58147 50.2886 5.77914 50.3C5.93004 50.5162 6.12963 50.6925 6.36119 50.8139C6.59275 50.9355 6.84953 50.9987 7.11008 50.9984Z" fill="#0109C9"/>
<path d="M15.609 50.9989C15.9774 50.9985 16.335 50.8723 16.6245 50.6405C16.9141 50.4088 17.1189 50.0848 17.2061 49.7204L17.2137 49.6937C16.2465 49.9914 15.2489 50.1745 14.2405 50.2394C14.3886 50.4727 14.5918 50.6644 14.8315 50.7971C15.0712 50.9297 15.3398 50.9992 15.6127 50.9989H15.609Z" fill="#0109C9"/>
<path d="M23.2802 38.7822H19.7708L20.6708 35H17.3L16.404 38.7822H11.2937L12.1936 35H8.82277L7.92296 38.7822H5.62464L4.80734 42.2095H7.10942L6.32585 45.5299C7.24442 45.5338 8.18174 45.5299 9.08535 45.5299H9.70023L10.1734 43.5338L10.4884 42.2095H15.6166L14.8781 45.3314C16.2599 45.0503 17.558 44.4438 18.6683 43.5605L18.6758 43.5337L18.9909 42.2094H20.0932C20.9406 41.3239 21.8103 40.4499 22.6577 39.5989C22.9315 39.3279 23.2019 39.0531 23.475 38.7822H23.2876H23.2802Z" fill="#0109C9"/>
<path d="M94.124 44.1816C93.7865 43.8418 93.2824 43.5907 92.6112 43.4172L91.5844 43.1624C91.3071 43.1181 91.0486 42.9923 90.841 42.8005C90.695 42.6399 90.6156 42.4283 90.6194 42.2096C90.6148 42.0639 90.6495 41.9198 90.7191 41.7924C90.7887 41.665 90.891 41.5593 91.0148 41.4865C91.3361 41.2982 91.7041 41.2084 92.0743 41.228C92.4701 41.219 92.8632 41.2905 93.2316 41.4385C93.5356 41.5642 93.826 41.7214 94.0984 41.9074L94.6274 41.0612C94.334 40.8632 94.0258 40.6891 93.7056 40.5405C93.2809 40.3337 92.7225 40.2303 92.0295 40.2303C91.645 40.2221 91.262 40.2757 90.894 40.3891C90.6013 40.4807 90.3278 40.6262 90.0862 40.8182C89.8774 40.9872 89.7119 41.2051 89.6039 41.4534C89.5012 41.6921 89.4481 41.9498 89.4478 42.2104C89.4301 42.6455 89.5798 43.0706 89.865 43.3952C90.1408 43.7017 90.5832 43.9337 91.1856 44.0968L92.4189 44.4291C93.1048 44.5984 93.4457 44.972 93.4457 45.5444C93.4457 46.2497 92.9317 46.603 91.9038 46.6042C91.4862 46.6115 91.0716 46.5324 90.6848 46.3715C90.4437 46.2576 90.21 46.1281 89.9846 45.9838L89.4557 46.8885C89.6588 47.0141 89.9384 47.1839 90.0689 47.2467C90.3278 47.3636 90.5994 47.4491 90.8778 47.5015C91.2206 47.5704 91.5694 47.6038 91.9189 47.6012C92.8004 47.6012 93.4742 47.4203 93.9397 47.0584C94.1673 46.8822 94.3498 46.6524 94.4709 46.3887C94.5924 46.125 94.6489 45.8353 94.6361 45.5444C94.6485 45.2936 94.6101 45.0429 94.5236 44.8079C94.4367 44.5729 94.3035 44.3585 94.1319 44.178L94.124 44.1816Z" fill="#222326"/>
<path d="M98.8364 46.523C98.6539 46.5783 98.4647 46.6081 98.2743 46.6116C97.9443 46.6326 97.6162 46.5459 97.3382 46.3642C97.1132 46.198 97.0045 45.918 97.0045 45.5149V41.2166H99.4312V40.2233H97.0045V38.3843H95.822V45.5852C95.822 46.3083 96.036 46.8222 96.4642 47.1325C96.892 47.4426 97.4507 47.5978 98.14 47.5978C98.5049 47.6147 98.8684 47.5463 99.2028 47.3977C99.283 47.3571 99.359 47.3165 99.4316 47.2832L98.9598 46.4782C98.9195 46.4939 98.8785 46.5075 98.8368 46.5188L98.8364 46.523Z" fill="#222326"/>
<path d="M106.368 45.8509C106.261 45.9358 106.157 46.0201 106.055 46.0872C105.726 46.2979 105.361 46.4421 104.978 46.5119C103.56 46.7851 102.598 46.2903 102.091 45.0385L107.017 43.3176C107.017 43.3176 106.973 43.0001 106.933 42.7822C106.86 42.359 106.704 41.9549 106.476 41.5931C106.263 41.257 105.987 40.9671 105.664 40.7401C105.339 40.5147 104.972 40.3612 104.586 40.2895C104.17 40.2121 103.743 40.2159 103.327 40.3006C102.879 40.3803 102.452 40.5497 102.069 40.7991C101.706 41.0313 101.398 41.3411 101.165 41.707C100.926 42.0882 100.766 42.5157 100.697 42.9625C100.618 43.4814 100.632 44.0105 100.736 44.5246C100.958 45.7284 101.458 46.5851 102.235 47.0836C103.011 47.5822 103.969 47.7262 105.104 47.5083C105.407 47.4509 105.703 47.3633 105.989 47.2467C106.233 47.1458 106.466 47.0183 106.682 46.8664C106.773 46.8036 106.9 46.6971 107.027 46.5857L106.374 45.8509H106.368ZM102.127 42.1913C102.277 41.9477 102.477 41.7396 102.713 41.581C102.949 41.4224 103.215 41.317 103.494 41.2718C104.078 41.161 104.572 41.2497 104.963 41.5377C105.367 41.8459 105.655 42.2849 105.78 42.7822L101.847 44.1226C101.724 43.3324 101.815 42.6898 102.127 42.1913Z" fill="#222326"/>
<path d="M113.957 45.8509C113.851 45.9359 113.746 46.0202 113.645 46.0873C113.315 46.298 112.95 46.4422 112.567 46.5119C111.149 46.7852 110.187 46.2903 109.68 45.0385L114.606 43.3177C114.606 43.3177 114.562 43.0001 114.522 42.7822C114.448 42.3591 114.293 41.955 114.065 41.5932C113.852 41.2571 113.576 40.9672 113.253 40.7401C112.928 40.5148 112.562 40.3613 112.175 40.2896C111.759 40.2122 111.332 40.2159 110.916 40.3007C110.468 40.3804 110.041 40.5498 109.658 40.7992C109.295 41.0314 108.987 41.3412 108.754 41.707C108.515 42.0883 108.356 42.5157 108.286 42.9626C108.207 43.4815 108.221 44.0105 108.325 44.5246C108.547 45.7284 109.047 46.5852 109.824 47.0837C110.6 47.5822 111.558 47.7262 112.693 47.5084C112.996 47.451 113.293 47.3633 113.578 47.2468C113.822 47.1459 114.055 47.0183 114.271 46.8664C114.362 46.8036 114.489 46.6972 114.616 46.5858L113.963 45.8509H113.957ZM109.716 42.1914C109.866 41.9477 110.066 41.7396 110.302 41.581C110.538 41.4224 110.804 41.317 111.083 41.2719C111.668 41.1611 112.161 41.2497 112.552 41.5378C112.956 41.846 113.244 42.285 113.369 42.7822L109.436 44.1227C109.313 43.3324 109.404 42.6899 109.716 42.1914Z" fill="#222326"/>
<path d="M115.821 47.6048V38.3878H117V47.6043H115.821V47.6048Z" fill="#222326"/>
<path d="M42.3616 38.3878V41.8588H39.2854V38.3878H37.087V47.6011H39.2854V44.1299H42.3616V47.6011H44.5637V38.3878H42.3616Z" fill="#222326"/>
<path d="M51.8909 41.6559C51.7408 41.3365 51.5151 41.06 51.2344 40.8509C50.9251 40.6286 50.5763 40.4693 50.2076 40.3819C49.7704 40.2772 49.322 40.2263 48.8727 40.2305C48.4325 40.2331 47.9938 40.2814 47.5631 40.3745C47.0119 40.516 46.4716 40.6974 45.9456 40.9173L46.6097 42.3175C46.6097 42.3175 47.1902 42.1033 47.5348 42.0147C47.8791 41.9292 48.2324 41.8858 48.5868 41.8855C48.9521 41.8637 49.3167 41.9375 49.6459 42.0996C49.7637 42.1654 49.8607 42.2638 49.9255 42.3834C49.9905 42.5031 50.0206 42.639 50.0124 42.7754V42.9342L48.1334 43.1373C47.332 43.2222 46.7365 43.4401 46.3519 43.7835C45.964 44.1306 45.7718 44.6329 45.7718 45.2939C45.7718 46.0694 46.0596 46.6479 46.6349 47.0295C47.2083 47.4098 47.9844 47.5988 48.9533 47.5988H52.12V42.8043C52.1295 42.4073 52.0501 42.0134 51.8879 41.6522L51.8909 41.6559ZM50.03 45.7436V45.9727H48.9126C48.5499 45.9654 48.2813 45.8989 48.118 45.7696C48.0356 45.7062 47.9694 45.6233 47.9254 45.5281C47.881 45.4329 47.8603 45.3283 47.8644 45.2231C47.8584 45.1223 47.8814 45.022 47.9303 44.9342C47.9792 44.8464 48.0522 44.7749 48.1398 44.7283C48.3652 44.6054 48.6139 44.5336 48.869 44.5178L50.03 44.4181V45.7436Z" fill="#222326"/>
<path d="M79.6896 41.6559C79.5395 41.3365 79.3138 41.06 79.0331 40.8509C78.7238 40.6285 78.3751 40.4693 78.0063 40.3819C77.5688 40.2772 77.1207 40.2263 76.6715 40.2305C76.2313 40.2331 75.7922 40.2814 75.3618 40.3745C74.8106 40.516 74.2703 40.6974 73.7443 40.9173L74.4084 42.3175C74.4084 42.3175 74.9885 42.1033 75.3332 42.0147C75.6778 41.9292 76.0307 41.8858 76.3855 41.8855C76.7505 41.8637 77.1154 41.9375 77.4446 42.0996C77.5624 42.1654 77.6595 42.2638 77.7242 42.3834C77.7889 42.5031 77.819 42.639 77.8111 42.7754V42.9342L75.9318 43.1373C75.1308 43.2222 74.5352 43.4401 74.1507 43.7835C73.7624 44.1306 73.5701 44.6329 73.5701 45.2939C73.5701 46.0694 73.858 46.6479 74.4336 47.0295C75.007 47.4098 75.7832 47.5988 76.752 47.5988H79.9188V42.8043C79.9282 42.4073 79.8488 42.0134 79.6866 41.6522L79.6896 41.6559ZM77.8288 45.7436V45.9727H76.7113C76.3486 45.9654 76.08 45.8989 75.9167 45.7696C75.8343 45.7062 75.7681 45.6233 75.7237 45.5281C75.6797 45.4329 75.6586 45.3283 75.6628 45.2231C75.6571 45.1223 75.6801 45.022 75.729 44.9342C75.7779 44.8464 75.8505 44.7749 75.9386 44.7283C76.1639 44.6054 76.4126 44.5336 76.6677 44.5178L77.8288 44.4181V45.7436Z" fill="#222326"/>
<path d="M59.1098 45.3413C59.1237 45.6621 59.0598 45.9816 58.9239 46.2714C58.7877 46.5612 58.5838 46.8125 58.3299 47.003C57.811 47.4018 57.048 47.6013 56.0408 47.6013C55.6774 47.604 55.3143 47.5743 54.9561 47.5126C54.4851 47.4157 54.0242 47.2722 53.5806 47.0843L54.4723 45.633C54.5449 45.6663 54.6386 45.6995 54.7518 45.7407C55.145 45.8733 55.5578 45.9371 55.972 45.9292C56.6394 45.9292 56.9769 45.7372 56.9769 45.3532C56.9811 45.2802 56.9668 45.2074 56.9355 45.1415C56.9047 45.0756 56.8577 45.0189 56.799 44.9765C56.6135 44.8644 56.4095 44.7868 56.197 44.7475L55.6311 44.6183C54.8583 44.4521 54.2857 44.2047 53.9079 43.8613C53.5298 43.5215 53.3421 43.0458 53.3421 42.4285C53.3334 42.1107 53.4034 41.7958 53.5456 41.5126C53.6875 41.2295 53.8967 40.987 54.1544 40.8073C54.695 40.4085 55.4231 40.2091 56.3384 40.2091C56.6605 40.2076 56.9818 40.2333 57.2997 40.286C57.3889 40.2999 57.4773 40.3183 57.5646 40.3414C57.5646 40.3414 57.6225 40.3568 57.7207 40.3858C58.1338 40.4952 58.5342 40.65 58.9145 40.8473L58.0804 42.2063L58.0477 42.1952C57.8991 42.1361 57.7429 42.0875 57.5725 42.0364C57.3945 41.9876 57.2139 41.9494 57.0318 41.922C56.8592 41.8936 56.6846 41.8788 56.5096 41.8776C56.2451 41.8663 55.9818 41.9129 55.7368 42.0143C55.6552 42.0465 55.5848 42.1034 55.5356 42.1772C55.4863 42.2511 55.4603 42.3386 55.4611 42.4279C55.4584 42.4894 55.4716 42.5505 55.4991 42.6055C55.5261 42.6604 55.5668 42.7073 55.6172 42.7417C55.7918 42.8464 55.9836 42.9189 56.1831 42.9559L56.7199 43.0852C57.5796 43.2772 58.1892 43.5541 58.5556 43.9197C58.7388 44.1022 58.8822 44.3216 58.9774 44.5639C59.0722 44.8062 59.1166 45.066 59.1068 45.3267L59.1098 45.3413Z" fill="#222326"/>
<path d="M66.8693 43.022C66.8693 42.0914 66.6131 41.3935 66.1003 40.9282C65.5853 40.4629 64.8779 40.2303 63.9708 40.2303C63.6973 40.2275 63.4245 40.2585 63.1581 40.3226C62.9283 40.3777 62.7048 40.4569 62.4907 40.5589V38.3878H60.3251V47.6043H62.4911V42.7672C62.4896 42.6114 62.5355 42.4591 62.6228 42.3309C62.7097 42.2028 62.8334 42.1051 62.9772 42.0513H62.9806C63.1724 41.987 63.3737 41.9558 63.5758 41.959C63.87 41.9471 64.1586 42.0442 64.3881 42.2322C64.5912 42.4095 64.6966 42.7012 64.7037 43.1111V47.6048H66.8697V47.4903L66.8693 43.022Z" fill="#222326"/>
<path d="M72.3617 47.3606L72.0498 45.7399C72.0498 45.7399 71.8067 45.7918 71.6434 45.825C71.4914 45.852 71.3368 45.8631 71.1826 45.8583C70.9342 45.8732 70.6874 45.8099 70.4752 45.677C70.3887 45.6093 70.3202 45.5207 70.2758 45.4193C70.2314 45.3178 70.213 45.2067 70.2213 45.096V41.9955H72.3654V40.2379H70.254V38.3915H68.0884V44.704C68.0884 46.0767 68.3096 46.6799 68.7524 47.0498C69.1949 47.4197 69.8115 47.6048 70.6062 47.6048H70.7401C71.2883 47.5638 71.8323 47.4834 72.3692 47.3643L72.3617 47.3606Z" fill="#222326"/>
<path d="M82.1675 50.5039C82.4557 50.6705 82.768 50.7903 83.0927 50.8588C83.554 50.9595 84.025 51.0064 84.4965 50.9985C84.9874 51.003 85.4769 50.9395 85.9514 50.8097C86.3728 50.6988 86.7693 50.5066 87.1192 50.2435C87.451 49.9914 87.7174 49.6611 87.8958 49.2809C88.091 48.844 88.1866 48.3679 88.1749 47.8881V41.3742C88.0809 41.3062 87.7471 41.0609 87.5801 40.9434C87.243 40.7319 86.8795 40.568 86.4992 40.4564C86.0022 40.3002 85.4845 40.2238 84.9645 40.2299C84.4389 40.2252 83.9155 40.3067 83.4155 40.4715C82.9738 40.6214 82.5686 40.8645 82.2255 41.1848C81.8861 41.5087 81.6243 41.9077 81.4602 42.3511C81.2736 42.8682 81.1829 43.4159 81.1916 43.9667C81.1773 44.5486 81.2683 45.1282 81.4602 45.6766C81.6141 46.1016 81.8583 46.4869 82.1747 46.8052C82.4697 47.0921 82.8263 47.3053 83.2161 47.428C83.6296 47.5576 84.06 47.6225 84.4931 47.6205C84.7779 47.6244 85.0627 47.5965 85.3419 47.5374C85.571 47.4846 85.7949 47.4087 86.0093 47.311L86.0891 47.2732V47.8235C86.0891 48.318 85.9149 48.6765 85.5702 48.8916C85.2365 49.103 84.776 49.2087 84.2026 49.2087C83.7993 49.2115 83.3978 49.1504 83.0129 49.0275C82.9546 49.0085 82.8967 48.9898 82.8388 48.967L82.0152 50.3938C82.0551 50.4246 82.0987 50.4541 82.1386 50.4844L82.1638 50.5033L82.1675 50.5039ZM86.0672 45.5564L86.0454 45.5753C85.8953 45.6878 85.729 45.7757 85.5522 45.8358C85.3437 45.9053 85.1255 45.9385 84.9066 45.934C84.7019 45.9363 84.498 45.9031 84.3042 45.8358C84.1172 45.7707 83.9498 45.6576 83.8181 45.5075C83.6691 45.3308 83.5589 45.1235 83.4953 44.8997C83.4118 44.6016 83.3726 44.2924 83.379 43.9825C83.379 43.3106 83.5352 42.8048 83.8437 42.484C84.0017 42.3228 84.1913 42.1967 84.3998 42.1135C84.6082 42.0304 84.8313 41.992 85.0552 42.0009C85.2482 41.9959 85.4404 42.0227 85.6252 42.08C85.752 42.1291 85.8972 42.1819 86.0277 42.2423L86.0639 42.2577V45.5564H86.0672Z" fill="#222326"/>
<path d="M37.7631 50.9999V50.2316L37.087 49.1238H37.5122L37.9484 49.8777L38.381 49.1238H38.8062L38.1374 50.2316V50.9999H37.7631Z" fill="#222326"/>
<path d="M39.3584 50.0605C39.3569 49.9371 39.3794 49.8145 39.4247 49.7C39.4701 49.5855 39.5373 49.4813 39.6225 49.3935C39.7077 49.3056 39.8092 49.2359 39.9211 49.1882C40.033 49.1406 40.1531 49.1161 40.2744 49.1161C40.3956 49.1161 40.5157 49.1406 40.6275 49.1882C40.7396 49.2359 40.8408 49.3056 40.9262 49.3935C41.0113 49.4813 41.0786 49.5855 41.1241 49.7C41.1693 49.8145 41.1919 49.9371 41.1903 50.0605C41.1919 50.1839 41.1693 50.3065 41.1241 50.421C41.0786 50.5355 41.0113 50.6397 40.9262 50.7276C40.8408 50.8154 40.7396 50.8852 40.6275 50.9328C40.5157 50.9804 40.3956 51.0049 40.2744 51.0049C40.1531 51.0049 40.033 50.9804 39.9211 50.9328C39.8092 50.8852 39.7077 50.8154 39.6225 50.7276C39.5373 50.6397 39.4701 50.5355 39.4247 50.421C39.3794 50.3065 39.3569 50.1839 39.3584 50.0605ZM40.8051 50.0605C40.8115 49.9851 40.8024 49.9092 40.7784 49.8375C40.7547 49.7658 40.7163 49.7 40.6659 49.6442C40.6157 49.5884 40.5547 49.5439 40.4866 49.5133C40.4185 49.4829 40.345 49.4671 40.2706 49.4671C39.9472 49.4671 39.74 49.7218 39.74 50.0605C39.74 50.3992 39.9472 50.654 40.2706 50.654C40.3449 50.6536 40.4183 50.6377 40.4862 50.6071C40.5541 50.5765 40.6151 50.5319 40.6651 50.4762C40.7155 50.4204 40.7539 50.3547 40.778 50.2832C40.8017 50.2117 40.8111 50.1359 40.8051 50.0605Z" fill="#222326"/>
<path d="M42.0335 50.2305V49.1242H42.4113V50.2157C42.4097 50.2721 42.4188 50.3282 42.4387 50.3808C42.4587 50.4333 42.4888 50.4813 42.5271 50.5218C42.5659 50.5623 42.6118 50.5945 42.663 50.6165C42.7137 50.6385 42.7687 50.6498 42.824 50.6498C42.8793 50.6498 42.9342 50.6385 42.985 50.6165C43.0362 50.5945 43.0821 50.5623 43.1208 50.5218C43.1592 50.4813 43.1893 50.4333 43.2093 50.3808C43.2292 50.3282 43.2386 50.2721 43.2367 50.2157V49.1242H43.6182V50.2268C43.6182 50.6857 43.3601 50.9961 42.8259 50.9961C42.2916 50.9961 42.0335 50.682 42.0335 50.2305Z" fill="#222326"/>
<path d="M45.5303 51L45.1849 50.3336H44.9129V51.0003H44.5378V49.1242H45.3587C45.4374 49.1196 45.5164 49.132 45.5901 49.1607C45.6639 49.1893 45.7308 49.2337 45.7865 49.2906C45.8422 49.3476 45.8855 49.4159 45.9133 49.4911C45.9411 49.5663 45.9532 49.6467 45.9483 49.7269C45.9596 49.8513 45.9268 49.9757 45.8565 50.0779C45.7858 50.1801 45.6819 50.2533 45.563 50.2844L45.9558 51H45.5269H45.5303ZM45.5664 49.7306C45.5675 49.696 45.5611 49.6616 45.5484 49.6296C45.5352 49.5976 45.5156 49.5687 45.4912 49.5449C45.4663 49.5211 45.437 49.5029 45.405 49.4914C45.373 49.4799 45.3388 49.4754 45.3049 49.4783H44.9118V49.983H45.3049C45.3388 49.9858 45.373 49.9813 45.405 49.9699C45.437 49.9584 45.4663 49.9402 45.4912 49.9163C45.5156 49.8925 45.5352 49.8637 45.5484 49.8317C45.5611 49.7997 45.5675 49.7652 45.5664 49.7306Z" fill="#222326"/>
<path d="M47.9435 50.7085L48.147 50.4136C48.2185 50.4909 48.3047 50.5525 48.4002 50.5945C48.4958 50.6365 48.5989 50.6579 48.7031 50.6575C48.9066 50.6575 49.0086 50.5591 49.0086 50.4574C49.0086 50.1371 47.998 50.3554 47.998 49.6747C47.998 49.3725 48.249 49.125 48.6632 49.125C48.9142 49.1158 49.1591 49.2058 49.3465 49.3762L49.1392 49.6603C49 49.532 48.8182 49.4618 48.6305 49.4636C48.4706 49.4636 48.3799 49.5364 48.3799 49.6457C48.3799 49.9332 49.3867 49.7403 49.3867 50.4174C49.3867 50.7487 49.1576 51 48.685 51C48.5488 51.0066 48.4123 50.9845 48.2847 50.9351C48.1572 50.8856 48.0409 50.8098 47.9435 50.7124V50.7085Z" fill="#222326"/>
<path d="M50.5895 50.9999V49.4779H50.0771V49.1276H51.4763V49.4779H50.9673V50.9999H50.5929H50.5895Z" fill="#222326"/>
<path d="M52.2913 51V49.1242H53.5306V49.4746H52.6619V49.87H53.5125V50.2204H52.6619V50.6459H53.5306V50.9963H52.2913V51Z" fill="#222326"/>
<path d="M54.4027 51V49.1242H55.642V49.4746H54.7737V49.87H55.624V50.2204H54.7737V50.6459H55.642V50.9963H54.4027V51Z" fill="#222326"/>
<path d="M56.5142 51V49.1242H56.8893V50.6459H57.6297V50.9963H56.5142V51Z" fill="#222326"/>
<path d="M60.2107 51V50.2316L59.5346 49.1238H59.9598L60.3958 49.8777L60.8285 49.1238H61.2536L60.5847 50.2316V51H60.2107Z" fill="#222326"/>
<path d="M61.8067 50.0605C61.8052 49.9371 61.8278 49.8145 61.8729 49.7C61.9185 49.5855 61.9854 49.4813 62.0708 49.3935C62.1559 49.3056 62.2574 49.2359 62.3692 49.1882C62.4813 49.1406 62.6013 49.1161 62.7225 49.1161C62.844 49.1161 62.964 49.1406 63.0758 49.1882C63.1879 49.2359 63.2891 49.3056 63.3745 49.3935C63.4595 49.4813 63.5269 49.5855 63.5724 49.7C63.6175 49.8145 63.6401 49.9371 63.6386 50.0605C63.6401 50.1839 63.6175 50.3065 63.5724 50.421C63.5269 50.5355 63.4595 50.6397 63.3745 50.7276C63.2891 50.8154 63.1879 50.8852 63.0758 50.9328C62.964 50.9804 62.844 51.0049 62.7225 51.0049C62.6013 51.0049 62.4813 50.9804 62.3692 50.9328C62.2574 50.8852 62.1559 50.8154 62.0708 50.7276C61.9854 50.6397 61.9185 50.5355 61.8729 50.421C61.8278 50.3065 61.8052 50.1839 61.8067 50.0605ZM63.2571 50.0605C63.2635 49.9851 63.2545 49.9092 63.2304 49.8375C63.2067 49.7658 63.1683 49.7 63.1179 49.6442C63.0679 49.5884 63.0065 49.5439 62.9388 49.5133C62.8707 49.4829 62.797 49.4671 62.7228 49.4671C62.3993 49.4671 62.192 49.7218 62.192 50.0605C62.192 50.3992 62.3993 50.6543 62.7228 50.6543C62.797 50.654 62.8703 50.638 62.9384 50.6074C63.0062 50.5767 63.0671 50.5321 63.1175 50.4764C63.1676 50.4206 63.2059 50.3549 63.23 50.2833C63.2541 50.2117 63.2631 50.1359 63.2571 50.0605Z" fill="#222326"/>
<path d="M64.4818 50.2305V49.1242H64.8595V50.2157C64.858 50.2721 64.867 50.3282 64.887 50.3808C64.9069 50.4333 64.937 50.4813 64.9758 50.5218C65.0141 50.5623 65.06 50.5945 65.1112 50.6165C65.162 50.6385 65.2169 50.6498 65.2722 50.6498C65.3275 50.6498 65.3825 50.6385 65.4333 50.6165C65.4844 50.5945 65.5303 50.5623 65.5691 50.5218C65.6075 50.4813 65.6376 50.4333 65.6575 50.3808C65.6774 50.3282 65.6868 50.2721 65.685 50.2157V49.1242H66.0665V50.2268C66.0665 50.6857 65.8084 50.9961 65.2741 50.9961C64.7399 50.9961 64.4818 50.682 64.4818 50.2305Z" fill="#222326"/>
<path d="M67.9785 51L67.6331 50.3336H67.3611V51.0003H66.986V49.1242H67.8077C67.8863 49.1199 67.9653 49.1326 68.0387 49.1614C68.1124 49.1901 68.1794 49.2344 68.2347 49.2913C68.2904 49.3482 68.3336 49.4164 68.3619 49.4915C68.3897 49.5666 68.4017 49.6468 68.3972 49.727C68.4085 49.8513 68.3762 49.9758 68.3054 50.0779C68.2347 50.1801 68.1309 50.2533 68.012 50.2844L68.4048 51H67.9758H67.9785ZM68.015 49.7306C68.0157 49.696 68.0097 49.6616 67.9965 49.6296C67.9837 49.5976 67.9642 49.5687 67.9394 49.5449C67.9149 49.5211 67.8855 49.5029 67.8532 49.4914C67.8212 49.4799 67.787 49.4754 67.7531 49.4783H67.3603V49.983H67.7531C67.787 49.9858 67.8212 49.9814 67.8532 49.9699C67.8855 49.9584 67.9149 49.9401 67.9394 49.9163C67.9642 49.8925 67.9837 49.8637 67.9965 49.8317C68.0097 49.7997 68.0157 49.7652 68.015 49.7306Z" fill="#222326"/>
<path d="M70.5083 51V49.1242H71.3296C71.4086 49.1197 71.4873 49.1323 71.561 49.161C71.6348 49.1898 71.7017 49.234 71.7574 49.2909C71.8131 49.3479 71.8564 49.4162 71.8842 49.4913C71.912 49.5665 71.9241 49.6467 71.9192 49.7269C71.9237 49.807 71.9113 49.8871 71.8831 49.962C71.8552 50.037 71.812 50.1051 71.7563 50.1619C71.7006 50.2187 71.634 50.263 71.5606 50.2919C71.4869 50.3208 71.4083 50.3337 71.3296 50.3296H70.883V50.9963H70.5083V51ZM71.5369 49.7306C71.5381 49.6962 71.5324 49.6619 71.52 49.6299C71.5072 49.598 71.488 49.5691 71.4636 49.5452C71.4391 49.5213 71.4101 49.503 71.3782 49.4915C71.3466 49.48 71.3123 49.4754 71.2788 49.4783H70.883V49.9829H71.2792C71.3127 49.9855 71.3466 49.9807 71.3785 49.9691C71.4101 49.9574 71.4391 49.9391 71.4636 49.9153C71.4876 49.8915 71.5068 49.8628 71.5196 49.8309C71.5324 49.7991 71.5381 49.7649 71.5369 49.7306Z" fill="#222326"/>
<path d="M73.7218 51L73.3764 50.3336H73.104V51.0003H72.7292V49.1242H73.5506C73.6292 49.1199 73.7082 49.1326 73.782 49.1614C73.8553 49.1901 73.9223 49.2344 73.978 49.2913C74.0337 49.3482 74.0769 49.4164 74.1048 49.4915C74.1326 49.5666 74.1447 49.6468 74.1401 49.727C74.1514 49.8513 74.1191 49.9758 74.0483 50.0779C73.9776 50.1801 73.8738 50.2533 73.7549 50.2844L74.1477 51H73.7191H73.7218ZM73.7579 49.7306C73.759 49.696 73.7526 49.6616 73.7395 49.6296C73.7267 49.5976 73.7071 49.5687 73.6826 49.5449C73.6578 49.5211 73.6285 49.5029 73.5965 49.4914C73.5641 49.4799 73.5303 49.4754 73.4964 49.4783H73.1032V49.983H73.4964C73.5303 49.9858 73.5641 49.9814 73.5965 49.9699C73.6285 49.9584 73.6578 49.9401 73.6826 49.9163C73.7071 49.8925 73.7267 49.8637 73.7395 49.8317C73.7526 49.7997 73.759 49.7652 73.7579 49.7306Z" fill="#222326"/>
<path d="M75.0006 51V49.1242H75.375V51H75.0006Z" fill="#222326"/>
<path d="M76.2151 50.0605C76.2117 49.9355 76.2335 49.811 76.2798 49.695C76.3257 49.5789 76.3945 49.4737 76.4822 49.386C76.5699 49.2982 76.6741 49.2298 76.7888 49.1848C76.9036 49.1399 77.0262 49.1195 77.1489 49.1249C77.3001 49.1213 77.4491 49.1611 77.5789 49.2396C77.7087 49.3182 77.8141 49.4323 77.8833 49.5691L77.5635 49.7329C77.524 49.6554 77.4645 49.5902 77.3916 49.5441C77.3186 49.498 77.2347 49.4729 77.1489 49.4714C77.074 49.4711 76.9995 49.4865 76.9307 49.5167C76.8618 49.5469 76.7994 49.5911 76.7482 49.6468C76.6966 49.7025 76.6568 49.7683 76.6316 49.8402C76.606 49.9121 76.5954 49.9886 76.6003 50.0648C76.5958 50.141 76.6067 50.2174 76.6319 50.2891C76.6575 50.3609 76.6974 50.4266 76.7486 50.4822C76.8001 50.5377 76.8622 50.582 76.931 50.6123C76.9999 50.6426 77.074 50.6583 77.1489 50.6583C77.235 50.657 77.3189 50.6319 77.3919 50.5859C77.4645 50.5398 77.524 50.4744 77.5635 50.3967L77.8833 50.5569C77.8141 50.6936 77.7087 50.8078 77.5789 50.8863C77.4491 50.9649 77.3001 51.0047 77.1489 51.0011C77.0262 51.0065 76.9036 50.986 76.7888 50.9411C76.6741 50.8962 76.5699 50.8277 76.4822 50.74C76.3945 50.6522 76.3257 50.547 76.2798 50.431C76.2335 50.315 76.2117 50.1905 76.2151 50.0654V50.0605Z" fill="#222326"/>
<path d="M78.6828 51V49.1242H79.9225V49.4746H79.0538V49.87H79.9041V50.2204H79.0538V50.6459H79.9225V50.9963H78.6828V51Z" fill="#222326"/>
</g>
</g>
<defs>
<clipPath id="clip0_660_1855">
<rect width="114" height="16" fill="white" transform="translate(3 35)"/>
</clipPath>
</defs>
</svg>
